<svg id="BACKGROUND_2" data-name="BACKGROUND 2" xmlns="http://www.w3.org/2000/svg" viewBox="0 0 750 126.2"><defs><style>.cls-1{fill:#fff;}.cls-2{fill:#f9f9ff;}</style></defs><path class="cls-1" d="M702.84,22c-3.58.61-32.49,3.08-33.69,3.77S644.8,35.91,640.8,37.08s-17.07-2.61-19.06-1.48-15.69.57-20.35,2.13-10.64,4.14-20.18,2.56-19.62-6.54-22.09-3.41-9.51,10.55-18.21,11.77-44.77-2.59-55.34-2.48-48.25,4.24-56.42,4.9-13.52-4.51-15.27-5.47-21.5,2.78-24,2.81-7.16-8.95-10.15-9.76S347.18,30.59,340.64,32s-42.81,6.8-46.09,5S282.47,31.82,279,31.86s-23.6-.58-27.85-1.38-58-9.78-59.49-11.74-26.12-5.35-34.12-4.13-19,.5-31.58-1S99.38,8.78,88.06,7.78s-34.93-2.42-40.39-1-14.84,1.3-22.46-.59C17.94,4.44,3.9-.1,0,0V126.2H750v-100c-6.87-.08-20.64-.2-23.64-.2C722.35,26,706.42,21.38,702.84,22Z"/><path class="cls-2" d="M726.36,26c-4,0-19.94-4.61-23.52-4s-32.49,3.08-33.69,3.77S644.8,35.91,640.8,37.08a13,13,0,0,1-4.43.1c4.08,3.24,8.12,6.41,9.35,7.64,2.41,2.42,22.15,5.86,25.5,5.86s15.08-3.92,17.58-6.41,8.91-5.34,14.24,0,18.85,11,20.63,12.81,26.33,0,26.33,0V26.19C743.13,26.11,729.36,26,726.36,26Z"/><path class="cls-2" d="M191.62,18.74c-1.53-2-26.12-5.35-34.12-4.13s-19,.5-31.58-1S99.38,8.78,88.06,7.78s-34.93-2.42-40.39-1-14.84,1.3-22.46-.59C17.94,4.44,3.9-.1,0,0V40.72s55.16,2.85,59.58.71,18.7-13.54,21.9-13.54,26.67,2.12,28.81,4.27,22.77,13.37,26.33,14.26,38-12,40.56-10.68,43.41,10,43.41,10,12.6-10.84,15.28-13.52c1-1,5.31-1.93,10.48-2.57C232.2,27.19,192.93,20.41,191.62,18.74Z"/></svg>