<svg id="BACKGROUND_2" data-name="BACKGROUND 2" xmlns="http://www.w3.org/2000/svg" viewBox="0 0 750 169.56"><defs><style>.cls-1{fill:#fff;}.cls-2{fill:#f9f9ff;}</style></defs><path class="cls-1" d="M0,0V112.63c6.3.28,16,.7,18.3.7,3.46,0,17.27,8.11,20.27,7.16s28-4.57,29-5.72S88.66,98.09,92.06,96.18,106.74,101,108.46,99s13.47-.71,17.54-3.21,9.23-6.81,17.44-4,16.84,11.44,19,6.2,8.3-17.65,15.8-19.55,38.58,5.25,47.64,5.25,41.59-6.19,48.63-7.15,11.56,7.8,13.06,9.51,18.54-4.29,20.7-4.29,6,15.26,8.65,16.69,28,14.3,33.61,11.92,36.94-10.69,39.74-7.63,10.33,9.06,13.38,9.06,20.35,1.41,24,2.86,49.83,17.66,51.12,21,22.45,9.54,29.34,7.63,16.4-.49,27.19,2.38,22.78,8.58,32.55,10.49,30,4.78,34.77,2.39,12.8-1.91,19.35,1.43c2,1,4.7,2.59,7.48,4.2,6-2.69,10.71-5,11.38-5.81,2-2.61,7.09-5.22,13.67-5.22s6.45,5.25,12.15,12.63,21.63,1.85,23.7-.82,7.64-3.41,11.24-5.32,16.82-1.67,19.34-4.91,11.15-16.26,14.69-17.57c2.32-.85,9.61-.59,14.38-.31V0Z"/><path class="cls-2" d="M108.46,99c1.72-1.91,13.47-.71,17.54-3.21s9.23-6.81,17.44-4,16.84,11.44,19,6.2a68,68,0,0,1,3.36-6.93C154.61,87.78,139,82.44,136.62,83c-3.56.89-24.19,12.11-26.33,14.26-.56.57-2.6,1.13-5.35,1.65C106.63,99.41,108,99.59,108.46,99Z"/><path class="cls-2" d="M390.27,102.83c2.8,3.06,10.33,9.06,13.38,9.06s20.35,1.41,24,2.86,49.83,17.66,51.12,21,22.45,9.54,29.34,7.63,16.4-.49,27.19,2.38,22.78,8.58,32.55,10.49,30,4.78,34.77,2.39,12.8-1.91,19.35,1.43c2,1,4.7,2.59,7.48,4.2,6-2.69,10.71-5,11.38-5.81,2-2.61,7.09-5.22,13.67-5.22s6.45,5.25,12.15,12.63,21.63,1.85,23.7-.82,7.64-3.41,11.24-5.32,16.82-1.67,19.34-4.91,11.15-16.26,14.69-17.57c2.32-.85,9.61-.59,14.38-.31V72.36s-24.55-1.78-26.33,0S708.37,79.83,703,85.17s-11.74,2.49-14.24,0-14.23-6.41-17.58-6.41-23.09,3.44-25.5,5.86S630.1,96.91,626.9,100.11s-26-.36-30.6-5-15.65-2.83-18.43-2.83-7.19,5-9.32,7.83-20.63-7.83-20.63-7.83-19.22,5-22.79,5.69-16.28-3.48-17.78-5-11-5.33-13.52-7.82S459,89.44,455.41,89.44,419.84,88,416.83,91c-2.49,2.49-19.24,8.55-27.76,11.27A2.17,2.17,0,0,1,390.27,102.83Z"/><path class="cls-2" d="M38.57,120.49c3-.95,28-4.57,29-5.72.7-.78,10.09-8.12,17.15-13.39-1.53.11-2.69.17-3.24.17-3.2,0-17.48-11.4-21.9-13.54S0,88.72,0,88.72v23.91c6.3.28,16,.7,18.3.7C21.76,113.33,35.57,121.44,38.57,120.49Z"/></svg>