<svg id="7c4005e2-6b93-4e0a-ad97-302a446e3ef4" data-name="Layer 1" xmlns="http://www.w3.org/2000/svg" viewBox="0 0 299.66 169.2"><defs><style>.\37 cbb6206-a8f0-41e7-9137-aa0728b75206,.\39 b50c521-cdb3-49f8-98b2-2bcc38f852b1{fill:#393934;}.\39 d7ab055-c170-4064-8a00-4a2b2dee6e01{fill:#f5842a;}.\39 b50c521-cdb3-49f8-98b2-2bcc38f852b1{fill-rule:evenodd;}</style></defs><title>logo-original</title><polygon class="7cbb6206-a8f0-41e7-9137-aa0728b75206" points="12.69 154.41 12.69 168.86 6.46 168.86 6.46 154.41 0.08 154.41 0.08 149.44 19.04 149.44 19.04 154.41 12.69 154.41"/><path class="7cbb6206-a8f0-41e7-9137-aa0728b75206" d="M589.15,465.73q2.74,2.57,2.74,7.48t-2.74,7.48q-2.74,2.57-7.76,2.57t-7.75-2.55q-2.72-2.55-2.72-7.49t2.72-7.49q2.72-2.55,7.75-2.56t7.76,2.57M578.34,469a4.85,4.85,0,0,0-1,3.27v1.81a4.85,4.85,0,0,0,1,3.27,3.8,3.8,0,0,0,3,1.21,3.84,3.84,0,0,0,3.06-1.21,4.8,4.8,0,0,0,1.06-3.27v-1.81a4.8,4.8,0,0,0-1.06-3.27,3.84,3.84,0,0,0-3.06-1.21,3.8,3.8,0,0,0-3,1.21" transform="translate(-550.81 -314.06)"/><path class="7cbb6206-a8f0-41e7-9137-aa0728b75206" d="M609.36,464.34a5.85,5.85,0,0,1,2.2,2.29,6.71,6.71,0,0,1,.79,3.26v.37a6.79,6.79,0,0,1-.79,3.27,5.82,5.82,0,0,1-2.2,2.3,6.2,6.2,0,0,1-3.22.83h-4.66v6.27h-6.24V463.51h10.89a6.21,6.21,0,0,1,3.22.83m-7.87,7.77h2.57a2,2,0,0,0,1.48-.51,1.9,1.9,0,0,0,.49-1.38V470a1.89,1.89,0,0,0-.49-1.4,2,2,0,0,0-1.48-.49h-2.57Z" transform="translate(-550.81 -314.06)"/><path class="9d7ab055-c170-4064-8a00-4a2b2dee6e01" d="M633,465.73q2.74,2.57,2.74,7.48T633,480.69q-2.74,2.57-7.76,2.57t-7.75-2.55q-2.72-2.55-2.72-7.49t2.72-7.49q2.72-2.55,7.75-2.56t7.76,2.57M622.22,469a4.85,4.85,0,0,0-1,3.27v1.81a4.85,4.85,0,0,0,1,3.27,3.8,3.8,0,0,0,3,1.21,3.84,3.84,0,0,0,3.06-1.21,4.8,4.8,0,0,0,1.06-3.27v-1.81a4.8,4.8,0,0,0-1.06-3.27,3.84,3.84,0,0,0-3.06-1.21,3.8,3.8,0,0,0-3,1.21" transform="translate(-550.81 -314.06)"/><path class="9d7ab055-c170-4064-8a00-4a2b2dee6e01" d="M654.75,464.11a4.84,4.84,0,0,1,1.95,1.71,4.38,4.38,0,0,1,.72,2.46,4.22,4.22,0,0,1-3.25,4.51v.11q3.7.85,3.7,4.85a4.9,4.9,0,0,1-.75,2.7,5.05,5.05,0,0,1-2,1.82,6.28,6.28,0,0,1-2.85.65H639.13V463.51h12.92a6,6,0,0,1,2.7.61m-9.38,7h4.29a1.35,1.35,0,0,0,1-.44,1.53,1.53,0,0,0,.41-1.09v-.28a1.47,1.47,0,0,0-.42-1.06,1.36,1.36,0,0,0-1-.44h-4.29Zm0,7.34h4.74a1.35,1.35,0,0,0,1-.44,1.53,1.53,0,0,0,.41-1.09v-.28a1.53,1.53,0,0,0-.41-1.09,1.35,1.35,0,0,0-1-.44h-4.74Z" transform="translate(-550.81 -314.06)"/><polygon class="9d7ab055-c170-4064-8a00-4a2b2dee6e01" points="122.32 168.86 116.09 168.86 116.09 161.32 108.38 149.44 115.55 149.44 119.27 155.91 119.39 155.91 123.11 149.44 129.91 149.44 122.32 161.32 122.32 168.86"/><polygon class="9d7ab055-c170-4064-8a00-4a2b2dee6e01" points="143.4 154.41 143.4 168.86 137.16 168.86 137.16 154.41 130.79 154.41 130.79 149.44 149.75 149.44 149.75 154.41 143.4 154.41"/><polygon class="9d7ab055-c170-4064-8a00-4a2b2dee6e01" points="166.48 168.86 158.33 159.43 158.33 168.86 152.6 168.86 152.6 149.44 158.05 149.44 166.2 159.01 166.2 149.44 171.93 149.44 171.93 168.86 166.48 168.86"/><path class="9d7ab055-c170-4064-8a00-4a2b2dee6e01" d="M726.91,463.51h16.79v4.66H733.15v2.68h9v4.46h-9v3H743.9v4.66h-17Zm6.1-1.81,2.6-3.75h5.45l.06.11-4.52,3.64Z" transform="translate(-550.81 -314.06)"/><polygon class="7cbb6206-a8f0-41e7-9137-aa0728b75206" points="201.76 168.86 194.87 149.44 201.53 149.44 205.43 162.42 205.54 162.42 209.46 149.44 215.84 149.44 208.98 168.86 201.76 168.86"/><path class="7cbb6206-a8f0-41e7-9137-aa0728b75206" d="M785.69,465.73q2.74,2.57,2.74,7.48t-2.74,7.48q-2.74,2.57-7.76,2.57t-7.75-2.55q-2.72-2.55-2.72-7.49t2.72-7.49q2.72-2.55,7.75-2.56t7.76,2.57M774.89,469a4.85,4.85,0,0,0-1,3.27v1.81a4.85,4.85,0,0,0,1,3.27,3.8,3.8,0,0,0,3,1.21,3.84,3.84,0,0,0,3.06-1.21,4.81,4.81,0,0,0,1.06-3.27v-1.81A4.81,4.81,0,0,0,781,469a3.84,3.84,0,0,0-3.06-1.21,3.8,3.8,0,0,0-3,1.21" transform="translate(-550.81 -314.06)"/><polygon class="7cbb6206-a8f0-41e7-9137-aa0728b75206" points="249.16 164.2 258.39 164.2 258.39 168.86 239.57 168.86 239.57 166.85 248.57 154.1 240.25 154.1 240.25 149.44 258.17 149.44 258.17 151.45 249.16 164.2"/><polygon class="7cbb6206-a8f0-41e7-9137-aa0728b75206" points="273.4 168.86 267.17 168.86 267.17 161.32 259.46 149.44 266.63 149.44 270.36 155.91 270.47 155.91 274.19 149.44 281 149.44 273.4 161.32 273.4 168.86"/><path class="7cbb6206-a8f0-41e7-9137-aa0728b75206" d="M833.06,482.75a.81.81,0,0,1-.23-.59.79.79,0,0,1,.23-.58.77.77,0,0,1,.56-.23.8.8,0,0,1,.57.23.78.78,0,0,1,.24.58.8.8,0,0,1-.24.59.78.78,0,0,1-.57.24.75.75,0,0,1-.56-.24" transform="translate(-550.81 -314.06)"/><path class="7cbb6206-a8f0-41e7-9137-aa0728b75206" d="M837.67,482.48a3.71,3.71,0,0,1-1.45-1.44,4.37,4.37,0,0,1,0-4.16,3.73,3.73,0,0,1,1.45-1.43,4.27,4.27,0,0,1,2.1-.51,4.07,4.07,0,0,1,1.83.4,3,3,0,0,1,1.27,1.17l-.8.54a2.48,2.48,0,0,0-1-.88,2.94,2.94,0,0,0-1.31-.29,3.1,3.1,0,0,0-1.54.38,2.69,2.69,0,0,0-1.07,1.09,3.58,3.58,0,0,0,0,3.23,2.71,2.71,0,0,0,1.07,1.08,3.09,3.09,0,0,0,1.54.38,3,3,0,0,0,1.31-.29,2.43,2.43,0,0,0,1-.87l.8.54a3,3,0,0,1-1.28,1.17,4.08,4.08,0,0,1-1.82.4,4.27,4.27,0,0,1-2.1-.51" transform="translate(-550.81 -314.06)"/><polygon class="7cbb6206-a8f0-41e7-9137-aa0728b75206" points="299.61 167.97 299.61 168.86 293.17 168.86 293.17 168.15 298.15 161.84 293.26 161.84 293.26 160.94 299.52 160.94 299.52 161.65 294.54 167.97 299.61 167.97"/><path class="9b50c521-cdb3-49f8-98b2-2bcc38f852b1" d="M737.38,346.46c-.17-1.36-.34-2.7-.5-4.07a14.9,14.9,0,0,1,4.32,4.11l2.56,0,.12,0c-9.21-12.92-13-4.11-15.49-.17Z" transform="translate(-550.81 -314.06)"/><path class="9b50c521-cdb3-49f8-98b2-2bcc38f852b1" d="M684.15,345.94c1.22-7.19,8.9-12.05,11.88-29.62a9.86,9.86,0,0,1,1.79.36c5.15,1.57,7.67,7.3,9,12.32.56,2.07,6.29,8.82,7.78,10.53a48.78,48.78,0,0,0,6.82,6.77l4,0c-.06-.17-.13-.35-.19-.55-3.4.28-16-15.8-16.42-17.39-8.54-31.43-37.92-3.27-50.11,9.41-4.24,4.41-6.78,7-8.7,8.37Z" transform="translate(-550.81 -314.06)"/><path class="9b50c521-cdb3-49f8-98b2-2bcc38f852b1" d="M637.47,360.15c.66-5.76,1.22-10.34,1.48-12.47-11.43,4.72-67.8,55.25-88.15,74.21H628c-.29-.74-.58-1.45-.86-2.2-9.55-12.25-14.45-5.27-21.69-10.13-1.1-.73-22.47-4.79-18-6.42,8-2.9,20.24-21.83,19.74-14.48-.85,12.46,15.87,26,11.86,10.78-5.14-19.45,12.86-17.42,10.3-21.79-4-6.77,2.33-13.65,8.15-17.5" transform="translate(-550.81 -314.06)"/><path class="9b50c521-cdb3-49f8-98b2-2bcc38f852b1" d="M850.47,421.88a182.8,182.8,0,0,1-55.68-40.33c-13.06-13.83-9.69-22.52-20.34-15.09-7.5,5.22-18.44-2.37-22.21-6.09a18,18,0,0,1-.68,2c0,.07-.07.14-.1.21.75.69,1.52,1.31,2.08,1.74a33.66,33.66,0,0,0,8.19,4.71,17.09,17.09,0,0,0,9.39,1.17,11.74,11.74,0,0,0,4.48-1.88c.83-.58,3.45-2.41,4.79-2.35.22,4.47.83,5.8-3,7.21-.42,2.16,4.47,3.65,2.14,9-.48,1.1,1.92,10,3,12.19-5,4.57,5.85,10.43,7.19,18.62.51,3.11,5.61-9.54,8.14-8.62.11.14,15.92,11.85,20.65,15.33-.22.75-.44,1.46-.67,2.2Z" transform="translate(-550.81 -314.06)"/><path class="7cbb6206-a8f0-41e7-9137-aa0728b75206" d="M742.83,346h0Z" transform="translate(-550.81 -314.06)"/><path class="7cbb6206-a8f0-41e7-9137-aa0728b75206" d="M766.6,419.29a8.8,8.8,0,0,0-1.42-1.92.48.48,0,0,0-.62-.13c-.51.23-1,.45-1.54.69a24.63,24.63,0,0,1-5.4,1.84A74.23,74.23,0,0,1,749.2,421c-1.1.11-2.21.19-3.31.27-1.49.11-3,.23-4.48.3-1.34.07-2.68.09-4,.12-2.71.06-5.41-.07-8.11-.12-.86,0-1.71-.07-2.57-.11l-2.21-.13-4.07-.31c-1.1-.09-2.21-.17-3.31-.27-1.33-.13-2.67-.28-4-.43-1.49-.16-3-.32-4.46-.51s-3.2-.43-4.79-.66l-5.83-.86c-.48-.07-1-.17-1.43-.25l-.31-.65a10,10,0,0,0-2-2.89,6.44,6.44,0,0,0-2.28-1.49,4.74,4.74,0,0,0-5.1,1,6.23,6.23,0,0,0-1.28,1.65l-.31.53c-.34,0-.67,0-1-.1l-3.15-.6L674,414.14a3,3,0,0,1-.35-.11v-.66q0-3.12,0-6.25c0-4.42,0-8.83.16-13.25,0-1.07.07-2.14.13-3.21q.13-2.48.3-5c.08-1.28.17-2.56.28-3.84s.27-2.79.42-4.18.32-2.94.51-4.4c.25-1.81.52-3.62.81-5.42a4.19,4.19,0,0,1,.3-1.33c.21,0,.42,0,.63,0h4.15c8.25,0,16.5.06,24.75.07,7.63,0,15.26.07,22.88-.1l5.89-.12c2.18,0,4.36-.1,6.53-.24l3.79-.23c1.14-.07,2.28-.24,3.42-.37a5.29,5.29,0,0,0,3.58-2,4.59,4.59,0,0,0,1.13-4,26.25,26.25,0,0,0-1.65-5.58,15.49,15.49,0,0,0-3.23-4.82,12.43,12.43,0,0,0-4.82-3,1.38,1.38,0,0,0-.72-.15,2.83,2.83,0,0,0,.36.26,12.77,12.77,0,0,1,3.26,2.43,19.56,19.56,0,0,1,3.91,5.84,18.41,18.41,0,0,1,1.5,5.2,3.83,3.83,0,0,1-.74,2.92,6.93,6.93,0,0,1-.85,1c-.89.81-.64.69-1.84.83-.95.11-1.9.19-2.84.27s-1.9.16-2.85.19q-2.92.08-5.84.11l-16.52.11-6.71,0H701.24l-.7,0,.29-.37a5.18,5.18,0,0,0,1.24-4c-.06-.64-.16-1.27-.27-1.9a32.49,32.49,0,0,0-1.92-6.36,21.94,21.94,0,0,0-2.45-4.56,10.19,10.19,0,0,0-1.51-1.69,4.59,4.59,0,0,0-3.14-1.2c-1.95,0-3.89-.06-5.84-.08s-3.85,0-5.78,0c-3.29,0-6.58.12-9.86.19l-5.83.15h-.29l-4.43.18-4.9.16h-.23l-4.14.18-4.73.16h-.23l-5,.2c-.89,0-1.77.11-2.66.16.45,0,.89,0,1.34,0l.52,0,6.3-.1,6.42-.12,6.42-.11c3,0,6-.1,8.93-.12,6.4,0,12.8-.06,19.21.09,1.34,0,2.68.07,4,.08a3.65,3.65,0,0,1,2.26.81,8.17,8.17,0,0,1,1.4,1.4,17,17,0,0,1,1.85,2.9,29.28,29.28,0,0,1,2.19,5.65,21.32,21.32,0,0,1,.77,4.18,3.35,3.35,0,0,1-1.12,2.82,6.52,6.52,0,0,1-1.49,1,2.21,2.21,0,0,1-1.06.25c-2,0-3.93,0-5.9,0l-8.23,0L672.11,365l-.58,0a.27.27,0,0,0-.25.21,2.29,2.29,0,0,0-.05.29c-.38,2.44-.78,4.88-1.13,7.32-.27,1.92-.49,3.86-.69,5.79-.22,2.13-.41,4.26-.59,6.39-.14,1.72-.25,3.45-.35,5.18-.09,1.57-.18,3.15-.23,4.72-.07,2.16-.11,4.32-.16,6.48,0,.37,0,.74,0,1.11q-.1,3.94,0,7.88c0,1.07,0,2.14,0,3.21a2.17,2.17,0,0,1-.06.38,2.77,2.77,0,0,1-.44,0c-.69-.12-1.38-.24-2.06-.38-2.26-.48-4.52-1-6.78-1.46-3-.66-6-1.34-8.93-2-.19,0-.37-.11-.55-.16s-.1-.36-.14-.53c-.09-.38-.17-.76-.27-1.14a11.79,11.79,0,0,0-1.06-2.71,4.54,4.54,0,0,0-1.13-1.4,1.56,1.56,0,0,0-2.26.11,2.86,2.86,0,0,0-.44.54,8.61,8.61,0,0,0-.52,1,9.39,9.39,0,0,0-.59,1.89l-.17.76c-.21,0-.38,0-.55-.07l-2.22-.49-4.62-1a9.24,9.24,0,0,0-.92-.13c-.23,0-.34.07-.35.28a3.8,3.8,0,0,0,0,.7,9.61,9.61,0,0,0,1.9,4.71A4.7,4.7,0,0,0,637.7,414l1,.47a34.68,34.68,0,0,0,3.51,1.26l.62.2c.05.2.1.39.15.57a13.7,13.7,0,0,0,1.15,3.29,5.5,5.5,0,0,0,.94,1.33,2.24,2.24,0,0,0,1.14.66l.33.06a.69.69,0,0,1,0,.58l-.25,0c-1.43.11-2.87.21-4.3.34-.77.07-1.55.17-2.32.27a10.38,10.38,0,0,0-1.09.22,3.05,3.05,0,0,0-.6.22c-.26.13-.27.34,0,.48a3.8,3.8,0,0,0,.47.23c6.81,2.92,13.61,5.85,20.43,8.74,6.41,2.71,12.87,5.3,19.41,7.7q11.83,4.34,24,7.5a7.67,7.67,0,0,0,1.43.24q2.3.14,4.61.23c1.63.06,3.27.09,4.9.11,5.23.08,10.47,0,15.7-.11l.41,0,4.61-.18,3.44-.15,2.16-.13,2.44-.18c.7-.05,1.4-.09,2.1-.15l3.08-.31c1.2-.13,2.4-.24,3.59-.4,1.46-.2,2.92-.43,4.38-.66a54.85,54.85,0,0,0,5.64-1.2,26.33,26.33,0,0,0,3.37-1.12,3.08,3.08,0,0,0,.57-.29.4.4,0,0,0,0-.68,1.66,1.66,0,0,0-.34-.23,4.38,4.38,0,0,0-.64-.28c-.63-.2-1.26-.41-1.89-.58-2.23-.57-4.49-1-6.75-1.29-.11,0-.21-.05-.42-.1l.35-.15a6.9,6.9,0,0,0,3.5-2.78,12.56,12.56,0,0,0,1.22-2.32c.15-.36.29-.72.42-1.09a.68.68,0,0,1,.37-.43l.41-.22a12,12,0,0,0,1.82-1.16,9.9,9.9,0,0,0,3.54-6,52.35,52.35,0,0,0,.6-5.86,2.55,2.55,0,0,0-.33-1.34m-115.36,4.84-.06.07a.35.35,0,0,1,0-.09s0,0,0,0a.14.14,0,0,1,0,.05m17.51,3.18c-.16.09-.29,0-.43,0l-4.74-1.8q-5.47-2.09-10.94-4.17a1.63,1.63,0,0,1-.85-.66,9.82,9.82,0,0,1-1-2c-.1-.29-.23-.57-.35-.85l.15,1.15a11.52,11.52,0,0,1-.06,3.87,5.27,5.27,0,0,1-.3.94.59.59,0,0,1-.77.42s-.07,0-.13,0a1.38,1.38,0,0,0,.52.8.54.54,0,0,0,.79,0,2.11,2.11,0,0,0,.29-.36c.08-.12.15-.25.23-.38a3.53,3.53,0,0,1-.53,1.56,1.41,1.41,0,0,1-.25.32.67.67,0,0,1-.95,0,2.43,2.43,0,0,1-.57-.8,8.78,8.78,0,0,1-.69-2.1,19.76,19.76,0,0,1-.34-5.39,10.58,10.58,0,0,1,.45-2.58,3.42,3.42,0,0,1,.56-1.14.66.66,0,0,1,.71-.29.76.76,0,0,1,.13.07c0,.09.05.2.07.31,0,.29.08.57.13.89a1.74,1.74,0,0,0-.95,1.37,1.3,1.3,0,0,0,.25-.09.39.39,0,0,1,.57.09,5.07,5.07,0,0,1,.43.69c.11.2.2.42.3.63-.09-.5-.18-1-.27-1.49,0-.17,0-.34-.07-.52a.88.88,0,0,1,.59.08l4.51,1.39,12.35,3.82.61.21.07.09a.13.13,0,0,1,0,.05q.24,2.85.47,5.69a1,1,0,0,1,0,.18m4.11.54a10,10,0,0,1-2.45-.23c-.14-1.16-.23-2.34-.28-3.52a14.56,14.56,0,0,1-.08-2.52,19.05,19.05,0,0,1,2.2.31,7.46,7.46,0,0,1,.18,1.53q.06.73.14,1.45c.05.5.14,1,.18,1.5a6,6,0,0,1,.12,1.48m.25-48.78c-.11,1.2-.21,2.4-.32,3.6,0,.56-.1,1.12-.13,1.69-.1,1.52-.19,3-.27,4.54-.11,2.06-.19,4.12-.29,6.18,0,.31,0,.62,0,.93-.15,5.06-.16,10.12-.13,15.18,0,.74,0,1.48,0,2.22a1.36,1.36,0,0,1-.05.56,5.13,5.13,0,0,1-2,0,2.17,2.17,0,0,1-.09-.36c0-.23,0-.47,0-.7,0-3.79,0-7.59,0-11.38,0-2.65.07-5.29.14-7.94,0-1.79.13-3.58.23-5.36s.2-3.5.36-5.24c.2-2.21.42-4.41.69-6.61a90.86,90.86,0,0,1,1.6-9.31c0-.17.09-.33.14-.5a7.08,7.08,0,0,1,1.57,0,2,2,0,0,1,0,.34c-.1.77-.2,1.54-.3,2.31-.14,1.12-.29,2.24-.42,3.36s-.29,2.47-.42,3.71c-.1.93-.19,1.86-.27,2.79m11.6,52.18-9.2-3c-.71-.23-.62-.12-.8-.84a23.62,23.62,0,0,1-.64-3.67c0-.39-.08-.77-.11-1.16a4.12,4.12,0,0,1,0-.43,2.62,2.62,0,0,1,.36,0l6.59,1.72,2.93.77.45.12c.36.1.4.14.43.52,0,.19,0,.39,0,.58a31.34,31.34,0,0,0,.54,5.09c0,.11,0,.22,0,.42l-.64-.19m13.37,4.38a11.33,11.33,0,0,1-.68,3,7.53,7.53,0,0,1-1,1.79,4.77,4.77,0,0,1-1,1,3.4,3.4,0,0,1-3.43.42,5,5,0,0,1-1.55-1,8.47,8.47,0,0,1-1.71-2.28,13.45,13.45,0,0,1-1.43-4.66,14.48,14.48,0,0,1-.1-2.51,11.1,11.1,0,0,1,.81-3.8,6.11,6.11,0,0,1,1.82-2.53,3.4,3.4,0,0,1,3.62-.45,5,5,0,0,1,1.49,1,8.43,8.43,0,0,1,1.53,2,12.67,12.67,0,0,1,1.42,3.93c.06.3.1.61.14.91a16.14,16.14,0,0,0-1-3.3,8.55,8.55,0,0,0-1.3-2.07,5.26,5.26,0,0,0-1.38-1.15,3.11,3.11,0,0,0-3.86.48,5.48,5.48,0,0,0-1.11,1.56,8.5,8.5,0,0,0-.77,2.56,12.18,12.18,0,0,0,.91,6.68,8.21,8.21,0,0,0,1.24,2,5.28,5.28,0,0,0,1.61,1.33,3.09,3.09,0,0,0,3.67-.49,5.34,5.34,0,0,0,1.23-1.75,9.29,9.29,0,0,0,.81-3.5c0-.58,0-1.16,0-1.86a13.52,13.52,0,0,1,.06,2.63m-1.45-1.71a8.64,8.64,0,0,1-.49,3.15,5.53,5.53,0,0,1-.71,1.34,3.35,3.35,0,0,1-.83.82,2.43,2.43,0,0,1-2.33.28,3.83,3.83,0,0,1-1.43-1,6.69,6.69,0,0,1-1.22-1.84,10.42,10.42,0,0,1-.87-3.43A9.42,9.42,0,0,1,689,430a5.73,5.73,0,0,1,.69-1.6,3.76,3.76,0,0,1,.79-.93,2.47,2.47,0,0,1,2.83-.35,4.09,4.09,0,0,1,1.35,1.09,7.33,7.33,0,0,1,1.18,2,9.89,9.89,0,0,1,.73,3.75M720,432.23a2.42,2.42,0,0,1-1.1-1.38c-.12-.39-.23-.78-.35-1.17a8.87,8.87,0,0,0-.35-.93,1.53,1.53,0,0,0-.93-.83,41.6,41.6,0,0,0-6.74-1.87l-3.51-.59a3.28,3.28,0,0,1-.62-.17l1.26.08c1,.05,2.06.09,3.09.16.85.06,1.7.14,2.55.25a34.55,34.55,0,0,1,3.85.66l1.41.36a3.23,3.23,0,0,1,1.55.88,10.77,10.77,0,0,1,1,1.19,19.85,19.85,0,0,1,2.36,4.48,2.7,2.7,0,0,1,.07.32,15.25,15.25,0,0,1-3.59-1.44m22,6.18-3.9-.73-5.33-1-.69-.15c1.13-.18,7.94-1,8.44-1a1.63,1.63,0,0,1,.16.26,6.65,6.65,0,0,0,1.51,2.33.78.78,0,0,1,.1.14.15.15,0,0,1,0,.06c-.08.13-.21.07-.31,0m18.61-15.6a32.3,32.3,0,0,1-2.3,5.6A12.77,12.77,0,0,1,757,430.5a6.48,6.48,0,0,1-1.08,1.06,3.49,3.49,0,0,1-1.77.69c-.89.09-1.77.23-2.66.31-1.12.11-2.25.19-3.37.27l-3.26.2h-.29c-3.66.12-7.31.17-11,.11-.49,0-1,0-1.46-.06a2.83,2.83,0,0,1-1.53-.49,5.28,5.28,0,0,1-1.36-1.27c-.41-.54-.8-1.1-1.15-1.68a21.67,21.67,0,0,1-1.66-3.53l-.08-.22c.18,0,.19.12.24.2.58.81,1.13,1.63,1.72,2.43a13,13,0,0,0,1.83,2,6.91,6.91,0,0,0,1.64,1.11,3.72,3.72,0,0,0,1.52.36c2.55.05,5.1,0,7.64,0,1.17,0,2.33-.12,3.5-.18l2.5-.15,2.44-.2,1.57-.14,2.84-.26a3.54,3.54,0,0,0,1.68-.6,7,7,0,0,0,1.23-1.07,15.26,15.26,0,0,0,1.76-2.4,32.86,32.86,0,0,0,2-3.89c.08-.19.19-.36.29-.54a2.06,2.06,0,0,1-.06.32m.1-.38,0,0,0-.06a.1.1,0,0,1,0,0m5.56-.8c-.24.19-.48.4-.74.56a5.06,5.06,0,0,0-1.21,1.16,2,2,0,0,0-.4.83q-.23,1.14-.46,2.28c-.08.42-.15.84-.24,1.26a3.76,3.76,0,0,1-1,1.91,33.9,33.9,0,0,1,.86-5.11,2.64,2.64,0,0,1,1.38-2,7,7,0,0,1,1.59-1c.1,0,.21-.06.42-.12a1.36,1.36,0,0,1-.16.23" transform="translate(-550.81 -314.06)"/><path class="7cbb6206-a8f0-41e7-9137-aa0728b75206" d="M728.9,394.23l6.71-.15h.23l4.49-.18,4.14-.16h.23l3.38-.18,3.09-.16c.27,0,.54,0,.81-.08s.57-.22.58-.6a3.28,3.28,0,0,0-.09-.92,11.48,11.48,0,0,0-.46-1.38,29.18,29.18,0,0,0-1.77-3.55,93.92,93.92,0,0,0-7.08-10.56,57.4,57.4,0,0,0-4.6-5.43c-.62-.64-1.29-1.24-2-1.82a9.06,9.06,0,0,0-1.2-.82,2.18,2.18,0,0,0-1.06-.3c-1.83-.07-3.65-.16-5.48-.21-1.67-.05-3.35-.09-5-.1-6.6-.05-13.19-.09-19.79,0-3.11.06-6.23.09-9.34.15l-7.06.15-.52,0a3.15,3.15,0,0,0-.36.09c.17.54.31,1,.46,1.51a110.24,110.24,0,0,0,5,13.12,43.93,43.93,0,0,0,3.48,6.27,18.19,18.19,0,0,0,2.09,2.58,8.71,8.71,0,0,0,1.39,1.15,4.53,4.53,0,0,0,1.94.76c.44.05.89.12,1.33.16,1.43.12,2.87.26,4.3.34q2.53.15,5.07.23c2.12.06,4.24.1,6.36.12,3.56,0,7.12,0,10.68-.09" transform="translate(-550.81 -314.06)"/><path class="7cbb6206-a8f0-41e7-9137-aa0728b75206" d="M748.48,405.32l-2,.18-2.33.15c-1.26.07-2.52.16-3.79.18-2.55,0-5.1,0-7.64-.06-2-.08-4.08-.12-6.12-.17l-.41,0-5.24-.23a1.82,1.82,0,0,0-.36.06c0,.26.06.49.11.72.21,1,.42,2,.66,3a39.77,39.77,0,0,0,2,6.09,16.94,16.94,0,0,0,1.56,2.93,7.36,7.36,0,0,0,1.35,1.53,3.53,3.53,0,0,0,2.35.86c2,0,4,0,6.07,0,2.74,0,5.48,0,8.23-.16l2.27-.15,2-.18c.87-.09,1.74-.17,2.61-.28s2-.27,2.94-.42q1.78-.29,3.56-.61a2.35,2.35,0,0,0,1.44-.83,6.21,6.21,0,0,0,.61-.92,6.38,6.38,0,0,0,.58-1.65,19.21,19.21,0,0,0,.41-4.58,42.52,42.52,0,0,0-.43-5.58,2.59,2.59,0,0,0-.24-1,2.52,2.52,0,0,0-.34,0c-1.44.19-2.89.4-4.33.59s-2.62.3-3.94.45l-1.51.15" transform="translate(-550.81 -314.06)"/><path class="7cbb6206-a8f0-41e7-9137-aa0728b75206" d="M678.23,395.53a6.79,6.79,0,0,0,.25,1.67,4.78,4.78,0,0,0,.59,1.39,2.83,2.83,0,0,0,1.51,1.23,9.71,9.71,0,0,0,1.29.35,23.05,23.05,0,0,0,4.88.3c.56,0,1.13,0,1.69-.08.08,0,.2,0,.23-.12-.15,0-.3-.09-.44-.12-.75-.13-1.5-.23-2.24-.38a18.12,18.12,0,0,1-4.11-1.28,3.25,3.25,0,0,1-1.8-2q-.09-.25-.16-.5a12.87,12.87,0,0,1-.44-2.52,35.44,35.44,0,0,1,0-5.42,2.59,2.59,0,0,1,0-.29c.06-.36.11-.4.48-.47a9.87,9.87,0,0,1,2.38-.12,7.29,7.29,0,0,1,1.26.21,2.74,2.74,0,0,1,1.72,1.3,8,8,0,0,1,.71,1.53,20.42,20.42,0,0,1,.92,4.09c.14,1.06.24,2.13.34,3.19a.48.48,0,0,0,.31.45l1.33.59q2.65,1.15,5.37,2.12a1.18,1.18,0,0,0,.73.15c0-.14-.06-.24-.09-.33L693.58,396c-1.29-4.12-2.64-8.22-4.21-12.24a67.64,67.64,0,0,0-3.35-7.44,22.72,22.72,0,0,0-2.19-3.44A5.56,5.56,0,0,0,683,372a7.75,7.75,0,0,0-2.83-1.46,6.68,6.68,0,0,0-.91-.18,2.08,2.08,0,0,0-.52,0,1.07,1.07,0,0,0-1,1c-.15,1.39-.33,2.78-.48,4.17-.19,1.74-.38,3.48-.53,5.22a49.9,49.9,0,0,0-.14,6.07,17.1,17.1,0,0,0,.36,3,6.31,6.31,0,0,0,1.14,2.72.85.85,0,0,1,.14.6c0,.76,0,1.52,0,2.27" transform="translate(-550.81 -314.06)"/><path class="7cbb6206-a8f0-41e7-9137-aa0728b75206" d="M664.29,389.51c.33,0,.66.07,1,.1h.06l.08-.05a.82.82,0,0,0,.06-.19q.75-8.6,1.49-17.2a2.5,2.5,0,0,0,0-.35,1.19,1.19,0,0,0-.68-.13l-4.26-.12-6.71-.16c-.41,0-.82,0-1.22-.05s-.42.07-.44.4c0,.62-.09,1.24-.13,1.86-.05.84-.1,1.67-.15,2.5-.14,2-.28,4-.42,6q-.18,2.56-.34,5.12a1.75,1.75,0,0,0,0,.75.76.76,0,0,0,.17.07l11.51,1.47" transform="translate(-550.81 -314.06)"/><path class="7cbb6206-a8f0-41e7-9137-aa0728b75206" d="M688.47,360.21a1.68,1.68,0,0,0,.08-.28c.05-.46.09-.93.14-1.39q.14-1.45.28-2.9.17-1.77.33-3.54a2.14,2.14,0,0,0,0-.34,2,2,0,0,0-.72-.06l-8.52,0-3.44,0c-.17,0-.35,0-.5.09-.09.4-.62,7.1-.62,7.9a3.1,3.1,0,0,0,0,.35c4.24.05,8.42.15,12.6.15a2.6,2.6,0,0,0,.36,0" transform="translate(-550.81 -314.06)"/><path class="7cbb6206-a8f0-41e7-9137-aa0728b75206" d="M702.6,407.32c1.43.57,2.88,1.06,4.35,1.49,2.74.81,5.52,1.48,8.3,2.1,1.55.35,3.12.66,4.68,1,.15,0,.3.1.47,0,0-.17-.08-.36-.13-.54-.14-.49-.28-1-.41-1.46-.36-1.33-.71-2.67-1.07-4a1.16,1.16,0,0,0-.27-.66l-.26-.05-2.89-.39-3.12-.42-3-.41-3.06-.41-3-.41-2.83-.38a3.06,3.06,0,0,0-.47,0,1.85,1.85,0,0,0,0,.32,11,11,0,0,0,.76,2.38,3.49,3.49,0,0,0,2,1.88" transform="translate(-550.81 -314.06)"/><path class="7cbb6206-a8f0-41e7-9137-aa0728b75206" d="M637.42,386.13l5.84.73a.75.75,0,0,0,.21,0,.81.81,0,0,0,.13-.52c0-.29,0-.58,0-.87.1-1.42.21-2.83.3-4.25s.18-2.91.27-4.37c.05-.8.12-1.59.18-2.38.06-1,.12-1.94.17-2.91a3,3,0,0,0,0-.4,1.55,1.55,0,0,0-.25-.05l-5.95-.14a.91.91,0,0,0-.21,0,1.11,1.11,0,0,0-.14.63c0,.39,0,.78-.05,1.17-.1,1.57-.2,3.14-.3,4.71-.06,1-.1,1.9-.16,2.85s-.12,1.74-.18,2.62-.1,1.71-.15,2.56a.76.76,0,0,0,.07.53.75.75,0,0,0,.2.08" transform="translate(-550.81 -314.06)"/><path class="7cbb6206-a8f0-41e7-9137-aa0728b75206" d="M759.21,404.49c.1.75.22,1.5.31,2.25s.15,1.58.23,2.38c0,.15,0,.32.17.45a2.42,2.42,0,0,0,.33-.19,9.16,9.16,0,0,0,1.86-1.91,5.66,5.66,0,0,0,.77-1.43,3.76,3.76,0,0,0,.19-2.12,15,15,0,0,0-1.37-3.76,2.27,2.27,0,0,0-.21-.29.87.87,0,0,0-.24.54,6.17,6.17,0,0,1-1.92,3.39.42.42,0,0,0-.15.41l0,.29" transform="translate(-550.81 -314.06)"/><path class="7cbb6206-a8f0-41e7-9137-aa0728b75206" d="M686,411.46h0v0" transform="translate(-550.81 -314.06)"/><path class="7cbb6206-a8f0-41e7-9137-aa0728b75206" d="M686.26,411.21c.2-.23.39-.49.59-.72a6.23,6.23,0,0,1,1.56-1.3,3.9,3.9,0,0,1,3-.49,7.37,7.37,0,0,1,1.48.53,10.45,10.45,0,0,1,2.35,1.62,19.9,19.9,0,0,1,2.86,3.23,30.4,30.4,0,0,1,1.76,2.75c.07.13.11.29.33.37a3.61,3.61,0,0,0-.09-.36,21.24,21.24,0,0,0-2.91-5.56,11.7,11.7,0,0,0-2.32-2.37,7.61,7.61,0,0,0-2.76-1.35,4.27,4.27,0,0,0-1.79-.11,4.74,4.74,0,0,0-2.45,1.27,8.49,8.49,0,0,0-1.77,2.44,1.91,1.91,0,0,0-.1.31,2.52,2.52,0,0,0,.29-.25" transform="translate(-550.81 -314.06)"/><path class="7cbb6206-a8f0-41e7-9137-aa0728b75206" d="M643.13,403.64h0v0" transform="translate(-550.81 -314.06)"/><path class="7cbb6206-a8f0-41e7-9137-aa0728b75206" d="M644.12,402a4.13,4.13,0,0,1,.77-.78,1.44,1.44,0,0,1,1.59-.15,3.62,3.62,0,0,1,1.14.89,8.18,8.18,0,0,1,1.08,1.59,16,16,0,0,1,1.15,2.68c.3.92.56,1.86.83,2.79a1.17,1.17,0,0,0,.07.22c0,.05,0,.15.15.12a27,27,0,0,0-.76-4,16.09,16.09,0,0,0-1-2.9,7.2,7.2,0,0,0-1.08-1.66,3.58,3.58,0,0,0-1.25-.93,1.61,1.61,0,0,0-1.8.25,4.49,4.49,0,0,0-.74.82,8.25,8.25,0,0,0-1.1,2.37,1.4,1.4,0,0,0,0,.33l.3-.47c.23-.38.43-.79.7-1.14" transform="translate(-550.81 -314.06)"/><path class="7cbb6206-a8f0-41e7-9137-aa0728b75206" d="M686,411.48h0v.05l0,0" transform="translate(-550.81 -314.06)"/><path class="7cbb6206-a8f0-41e7-9137-aa0728b75206" d="M643.08,403.72l0-.06,0,0a.11.11,0,0,0,0,0" transform="translate(-550.81 -314.06)"/><path class="7cbb6206-a8f0-41e7-9137-aa0728b75206" d="M643.12,403.65h0v0h0" transform="translate(-550.81 -314.06)"/><path class="7cbb6206-a8f0-41e7-9137-aa0728b75206" d="M742.84,346h0v0Z" transform="translate(-550.81 -314.06)"/><path class="7cbb6206-a8f0-41e7-9137-aa0728b75206" d="M742.8,345.94h0l.06,0,0,0" transform="translate(-550.81 -314.06)"/></svg>