<svg id="f7da842d-a1fa-4533-a831-29cebdcc1b8e" data-name="Layer 1" xmlns="http://www.w3.org/2000/svg" viewBox="0 0 299.66 169.2"><defs><style>.\35 897021c-7f7e-4a9d-a765-d74fe8c1d3b9,.\39 3ff69eb-527f-4257-91ca-b054cf6fe7f1{fill:#fff;}.eb97fe54-0cb5-4d53-a80c-3166a68c264c{fill:#f5842a;}.\35 897021c-7f7e-4a9d-a765-d74fe8c1d3b9{fill-rule:evenodd;}</style></defs><title>topobytnevozy-logo</title><polygon class="93ff69eb-527f-4257-91ca-b054cf6fe7f1" points="12.69 154.41 12.69 168.86 6.46 168.86 6.46 154.41 0.08 154.41 0.08 149.44 19.04 149.44 19.04 154.41 12.69 154.41"/><path class="93ff69eb-527f-4257-91ca-b054cf6fe7f1" d="M589.16,465.75q2.74,2.57,2.74,7.48t-2.74,7.48q-2.74,2.57-7.76,2.57t-7.75-2.55q-2.72-2.55-2.72-7.49t2.72-7.49q2.72-2.56,7.75-2.56t7.76,2.57m-10.81,3.3a4.85,4.85,0,0,0-1,3.27v1.81a4.85,4.85,0,0,0,1,3.27,3.8,3.8,0,0,0,3,1.21,3.84,3.84,0,0,0,3.06-1.21,4.8,4.8,0,0,0,1.06-3.27v-1.81a4.8,4.8,0,0,0-1.06-3.27,3.84,3.84,0,0,0-3.06-1.21,3.8,3.8,0,0,0-3,1.21" transform="translate(-550.82 -314.08)"/><path class="93ff69eb-527f-4257-91ca-b054cf6fe7f1" d="M609.36,464.35a5.84,5.84,0,0,1,2.2,2.28,6.71,6.71,0,0,1,.79,3.26v.37a6.78,6.78,0,0,1-.79,3.27,5.82,5.82,0,0,1-2.2,2.3,6.2,6.2,0,0,1-3.22.83h-4.66v6.26h-6.24V463.52h10.89a6.21,6.21,0,0,1,3.22.83m-7.87,7.77h2.57a2,2,0,0,0,1.48-.51,1.9,1.9,0,0,0,.49-1.38V470a1.89,1.89,0,0,0-.49-1.4,2,2,0,0,0-1.48-.49h-2.57Z" transform="translate(-550.82 -314.08)"/><path class="eb97fe54-0cb5-4d53-a80c-3166a68c264c" d="M633,465.75q2.74,2.57,2.74,7.48T633,480.71q-2.74,2.57-7.76,2.57t-7.75-2.55q-2.72-2.55-2.72-7.49t2.72-7.49q2.72-2.56,7.75-2.56t7.76,2.57m-10.81,3.3a4.85,4.85,0,0,0-1,3.27v1.81a4.85,4.85,0,0,0,1,3.27,3.8,3.8,0,0,0,3,1.21,3.84,3.84,0,0,0,3.06-1.21,4.8,4.8,0,0,0,1.06-3.27v-1.81a4.8,4.8,0,0,0-1.06-3.27,3.84,3.84,0,0,0-3.06-1.21,3.8,3.8,0,0,0-3,1.21" transform="translate(-550.82 -314.08)"/><path class="eb97fe54-0cb5-4d53-a80c-3166a68c264c" d="M654.75,464.13a4.84,4.84,0,0,1,1.95,1.71,4.39,4.39,0,0,1,.72,2.46,4.22,4.22,0,0,1-3.25,4.51v.11q3.7.85,3.7,4.85a4.9,4.9,0,0,1-.75,2.69,5.05,5.05,0,0,1-2,1.82,6.26,6.26,0,0,1-2.85.65H639.14V463.52h12.92a6,6,0,0,1,2.7.61m-9.38,7h4.29a1.35,1.35,0,0,0,1-.44,1.53,1.53,0,0,0,.41-1.09v-.28a1.47,1.47,0,0,0-.42-1.06,1.37,1.37,0,0,0-1-.44h-4.29Zm0,7.34h4.74a1.35,1.35,0,0,0,1-.44,1.53,1.53,0,0,0,.41-1.09v-.28a1.53,1.53,0,0,0-.41-1.09,1.35,1.35,0,0,0-1-.44h-4.74Z" transform="translate(-550.82 -314.08)"/><polygon class="eb97fe54-0cb5-4d53-a80c-3166a68c264c" points="122.32 168.86 116.09 168.86 116.09 161.32 108.38 149.44 115.55 149.44 119.27 155.91 119.39 155.91 123.11 149.44 129.91 149.44 122.32 161.32 122.32 168.86"/><polygon class="eb97fe54-0cb5-4d53-a80c-3166a68c264c" points="143.4 154.41 143.4 168.86 137.17 168.86 137.17 154.41 130.79 154.41 130.79 149.44 149.75 149.44 149.75 154.41 143.4 154.41"/><polygon class="eb97fe54-0cb5-4d53-a80c-3166a68c264c" points="166.48 168.86 158.33 159.43 158.33 168.86 152.6 168.86 152.6 149.44 158.05 149.44 166.2 159.01 166.2 149.44 171.93 149.44 171.93 168.86 166.48 168.86"/><path class="eb97fe54-0cb5-4d53-a80c-3166a68c264c" d="M726.92,463.52h16.79v4.66H733.16v2.68h9v4.46h-9v3h10.75v4.66h-17Zm6.1-1.81,2.6-3.75h5.45l.06.11-4.52,3.64Z" transform="translate(-550.82 -314.08)"/><polygon class="93ff69eb-527f-4257-91ca-b054cf6fe7f1" points="201.76 168.86 194.87 149.44 201.53 149.44 205.43 162.42 205.54 162.42 209.46 149.44 215.84 149.44 208.98 168.86 201.76 168.86"/><path class="93ff69eb-527f-4257-91ca-b054cf6fe7f1" d="M785.7,465.75q2.74,2.57,2.74,7.48t-2.74,7.48q-2.74,2.57-7.76,2.57t-7.75-2.55q-2.72-2.55-2.72-7.49t2.72-7.49q2.72-2.56,7.75-2.56t7.76,2.57m-10.81,3.3a4.85,4.85,0,0,0-1,3.27v1.81a4.85,4.85,0,0,0,1,3.27,3.8,3.8,0,0,0,3,1.21A3.84,3.84,0,0,0,781,477.4a4.81,4.81,0,0,0,1.06-3.27v-1.81a4.81,4.81,0,0,0-1.06-3.27,3.84,3.84,0,0,0-3.06-1.21,3.8,3.8,0,0,0-3,1.21" transform="translate(-550.82 -314.08)"/><polygon class="93ff69eb-527f-4257-91ca-b054cf6fe7f1" points="249.16 164.2 258.39 164.2 258.39 168.86 239.57 168.86 239.57 166.85 248.57 154.1 240.25 154.1 240.25 149.44 258.17 149.44 258.17 151.45 249.16 164.2"/><polygon class="93ff69eb-527f-4257-91ca-b054cf6fe7f1" points="273.4 168.86 267.17 168.86 267.17 161.32 259.46 149.44 266.63 149.44 270.36 155.91 270.47 155.91 274.19 149.44 281 149.44 273.4 161.32 273.4 168.86"/><path class="93ff69eb-527f-4257-91ca-b054cf6fe7f1" d="M833.07,482.77a.81.81,0,0,1-.23-.59.78.78,0,0,1,.23-.58.77.77,0,0,1,.56-.23.8.8,0,0,1,.57.23.78.78,0,0,1,.24.58.8.8,0,0,1-.24.59.78.78,0,0,1-.57.24.75.75,0,0,1-.56-.24" transform="translate(-550.82 -314.08)"/><path class="93ff69eb-527f-4257-91ca-b054cf6fe7f1" d="M837.67,482.5a3.71,3.71,0,0,1-1.45-1.44,4.37,4.37,0,0,1,0-4.16,3.72,3.72,0,0,1,1.45-1.43,4.27,4.27,0,0,1,2.1-.51,4.08,4.08,0,0,1,1.83.4,3.05,3.05,0,0,1,1.27,1.17l-.8.54a2.49,2.49,0,0,0-1-.88,2.93,2.93,0,0,0-1.31-.29,3.1,3.1,0,0,0-1.54.38,2.7,2.7,0,0,0-1.07,1.09,3.58,3.58,0,0,0,0,3.23,2.71,2.71,0,0,0,1.07,1.08,3.09,3.09,0,0,0,1.54.38,3,3,0,0,0,1.31-.29,2.42,2.42,0,0,0,1-.87l.8.54a3,3,0,0,1-1.28,1.17,4.06,4.06,0,0,1-1.82.4,4.27,4.27,0,0,1-2.1-.51" transform="translate(-550.82 -314.08)"/><polygon class="93ff69eb-527f-4257-91ca-b054cf6fe7f1" points="299.61 167.97 299.61 168.86 293.17 168.86 293.17 168.15 298.15 161.84 293.26 161.84 293.26 160.94 299.52 160.94 299.52 161.65 294.54 167.97 299.61 167.97"/><path class="93ff69eb-527f-4257-91ca-b054cf6fe7f1" d="M717.31,427.93a1.53,1.53,0,0,1,.93.83,9.21,9.21,0,0,1,.34.93c.13.39.23.78.35,1.17a2.42,2.42,0,0,0,1.1,1.38,15.22,15.22,0,0,0,3.59,1.44,2.94,2.94,0,0,0-.07-.32,19.94,19.94,0,0,0-2.36-4.48,10.75,10.75,0,0,0-1-1.18,3.21,3.21,0,0,0-1.55-.88l-1.41-.36a34.57,34.57,0,0,0-3.85-.66c-.85-.11-1.7-.19-2.55-.25-1-.07-2.06-.11-3.09-.16l-1.26-.08a3.29,3.29,0,0,0,.62.17l3.51.59a41.62,41.62,0,0,1,6.73,1.87" transform="translate(-550.82 -314.08)"/><path class="93ff69eb-527f-4257-91ca-b054cf6fe7f1" d="M684.77,425.94c0-.19,0-.39,0-.58,0-.37-.07-.42-.43-.52l-.45-.12-2.93-.77-6.59-1.72a3,3,0,0,0-.35,0,3.67,3.67,0,0,0,0,.43c0,.39.07.77.11,1.16a23.5,23.5,0,0,0,.64,3.67c.18.72.09.61.8.84l9.2,3,.64.19c0-.2,0-.32,0-.43a31.44,31.44,0,0,1-.54-5.09" transform="translate(-550.82 -314.08)"/><path class="93ff69eb-527f-4257-91ca-b054cf6fe7f1" d="M760.72,422.46l0,0a.11.11,0,0,0,0,0l0,.06" transform="translate(-550.82 -314.08)"/><path class="93ff69eb-527f-4257-91ca-b054cf6fe7f1" d="M763.07,424.54a33.79,33.79,0,0,0-.86,5.11,3.78,3.78,0,0,0,1-1.91c.09-.42.16-.84.24-1.26q.22-1.14.46-2.28a2,2,0,0,1,.4-.83,5.13,5.13,0,0,1,1.21-1.16c.26-.17.5-.37.74-.56a1.42,1.42,0,0,0,.17-.24c-.21.06-.32.08-.42.13a7,7,0,0,0-1.59,1,2.65,2.65,0,0,0-1.38,2" transform="translate(-550.82 -314.08)"/><path class="93ff69eb-527f-4257-91ca-b054cf6fe7f1" d="M758.42,426.93a15.22,15.22,0,0,1-1.76,2.4,7,7,0,0,1-1.23,1.07,3.56,3.56,0,0,1-1.68.6l-2.85.26-1.57.14-2.44.2-2.5.14c-1.17.06-2.33.15-3.5.18-2.55.06-5.09.09-7.64,0a3.72,3.72,0,0,1-1.52-.36,6.89,6.89,0,0,1-1.63-1.11,13,13,0,0,1-1.83-2c-.59-.79-1.14-1.62-1.72-2.43-.05-.08-.06-.23-.25-.2l.08.22a21.59,21.59,0,0,0,1.67,3.53,19.84,19.84,0,0,0,1.15,1.68,5.3,5.3,0,0,0,1.36,1.27,2.85,2.85,0,0,0,1.53.49c.48,0,1,0,1.46.05,3.66.06,7.31,0,11-.11l.29,0c1.09-.06,2.17-.12,3.26-.2s2.25-.16,3.37-.27c.89-.09,1.77-.22,2.66-.31a3.47,3.47,0,0,0,1.77-.69,6.5,6.5,0,0,0,1.08-1.06,12.81,12.81,0,0,0,1.38-2.09,32.41,32.41,0,0,0,2.3-5.6,2.08,2.08,0,0,0,.06-.32c-.1.18-.2.35-.29.54a32.7,32.7,0,0,1-2,3.89" transform="translate(-550.82 -314.08)"/><path class="93ff69eb-527f-4257-91ca-b054cf6fe7f1" d="M693.36,427.1a2.47,2.47,0,0,0-2.83.35,3.74,3.74,0,0,0-.79.93,5.73,5.73,0,0,0-.69,1.6,9.4,9.4,0,0,0-.29,3.29,10.42,10.42,0,0,0,.87,3.43,6.68,6.68,0,0,0,1.22,1.84,3.85,3.85,0,0,0,1.43,1,2.43,2.43,0,0,0,2.33-.29,3.35,3.35,0,0,0,.82-.82,5.53,5.53,0,0,0,.71-1.33,8.64,8.64,0,0,0,.5-3.15,9.9,9.9,0,0,0-.74-3.75,7.33,7.33,0,0,0-1.18-2,4.08,4.08,0,0,0-1.35-1.09" transform="translate(-550.82 -314.08)"/><path class="93ff69eb-527f-4257-91ca-b054cf6fe7f1" d="M651.25,424.14s0,0,0-.05l-.05,0a.43.43,0,0,0,0,.09l.06-.07" transform="translate(-550.82 -314.08)"/><path class="93ff69eb-527f-4257-91ca-b054cf6fe7f1" d="M649.9,415.13c0-.31-.08-.6-.12-.89,0-.11,0-.22-.07-.31a.64.64,0,0,0-.13-.07.66.66,0,0,0-.71.29,3.4,3.4,0,0,0-.56,1.14,10.63,10.63,0,0,0-.45,2.58,19.77,19.77,0,0,0,.34,5.39,8.74,8.74,0,0,0,.69,2.1,2.41,2.41,0,0,0,.57.8.67.67,0,0,0,.95,0,1.46,1.46,0,0,0,.25-.32,3.56,3.56,0,0,0,.53-1.56c-.08.13-.15.26-.23.38a2,2,0,0,1-.29.36.54.54,0,0,1-.79,0,1.39,1.39,0,0,1-.52-.8c.06,0,.1,0,.13,0a.59.59,0,0,0,.78-.42,5.38,5.38,0,0,0,.3-.94,11.56,11.56,0,0,0,.06-3.87l-.15-1.15c.12.29.25.57.35.85a9.88,9.88,0,0,0,1,2,1.62,1.62,0,0,0,.85.66l10.94,4.17,4.74,1.8c.14.05.27.14.43,0a1.08,1.08,0,0,0,0-.18q-.23-2.85-.47-5.69a.14.14,0,0,0,0-.05l-.07-.09-.62-.21-12.35-3.82-4.51-1.39a.87.87,0,0,0-.59-.08c0,.19,0,.36.07.52.09.5.18,1,.27,1.49-.1-.21-.18-.42-.3-.63a5.06,5.06,0,0,0-.43-.69.39.39,0,0,0-.57-.1,1.29,1.29,0,0,1-.25.09,1.73,1.73,0,0,1,.95-1.37" transform="translate(-550.82 -314.08)"/><path class="93ff69eb-527f-4257-91ca-b054cf6fe7f1" d="M673.39,376.3q.2-1.86.42-3.71c.13-1.12.28-2.24.42-3.36.1-.77.2-1.54.3-2.32a2.08,2.08,0,0,0,0-.34,7.2,7.2,0,0,0-1.57,0c0,.17-.1.33-.14.5a90.87,90.87,0,0,0-1.6,9.31c-.27,2.2-.49,4.41-.69,6.62-.16,1.74-.26,3.49-.36,5.24s-.18,3.58-.23,5.37c-.07,2.64-.13,5.29-.14,7.94,0,3.79,0,7.59,0,11.38,0,.23,0,.47,0,.7a2,2,0,0,0,.09.36,5.13,5.13,0,0,0,2,0,1.35,1.35,0,0,0,.05-.56c0-.74,0-1.48,0-2.22,0-5.06,0-10.12.13-15.18,0-.31,0-.62,0-.93.1-2.06.18-4.12.29-6.18.08-1.52.18-3,.27-4.54,0-.56.08-1.12.13-1.69.1-1.2.2-2.4.31-3.6.08-.93.17-1.86.27-2.79" transform="translate(-550.82 -314.08)"/><path class="93ff69eb-527f-4257-91ca-b054cf6fe7f1" d="M672.57,424.88c-.05-.48-.1-1-.14-1.45a7.51,7.51,0,0,0-.18-1.53,19.09,19.09,0,0,0-2.2-.31,14.56,14.56,0,0,0,.08,2.52c.05,1.18.14,2.36.28,3.51a10,10,0,0,0,2.45.23,5.94,5.94,0,0,0-.12-1.48c0-.5-.12-1-.18-1.51" transform="translate(-550.82 -314.08)"/><path class="93ff69eb-527f-4257-91ca-b054cf6fe7f1" d="M698,432.49c0-.3-.09-.61-.14-.91a12.68,12.68,0,0,0-1.42-3.93,8.42,8.42,0,0,0-1.53-2,5,5,0,0,0-1.49-1,3.4,3.4,0,0,0-3.62.45,6.11,6.11,0,0,0-1.82,2.53,11.1,11.1,0,0,0-.81,3.8,14.58,14.58,0,0,0,.1,2.51,13.45,13.45,0,0,0,1.43,4.66,8.46,8.46,0,0,0,1.71,2.28,5,5,0,0,0,1.55,1,3.39,3.39,0,0,0,3.43-.42,4.73,4.73,0,0,0,1-1,7.51,7.51,0,0,0,1-1.79,11.33,11.33,0,0,0,.68-3A13.68,13.68,0,0,0,698,433c0,.69,0,1.28,0,1.86a9.31,9.31,0,0,1-.81,3.5,5.35,5.35,0,0,1-1.24,1.75,3.09,3.09,0,0,1-3.67.49,5.28,5.28,0,0,1-1.61-1.33,8.28,8.28,0,0,1-1.24-2,12.18,12.18,0,0,1-.9-6.68,8.44,8.44,0,0,1,.77-2.56,5.42,5.42,0,0,1,1.11-1.56,3.11,3.11,0,0,1,3.86-.48,5.29,5.29,0,0,1,1.38,1.16,8.53,8.53,0,0,1,1.3,2.06,16.07,16.07,0,0,1,1,3.3" transform="translate(-550.82 -314.08)"/><path class="93ff69eb-527f-4257-91ca-b054cf6fe7f1" d="M700.55,365.09l.7,0h12.43l6.71,0,16.52-.11q2.92,0,5.84-.11c1,0,1.9-.11,2.85-.19s1.9-.16,2.84-.27c1.2-.14,1,0,1.85-.83a6.81,6.81,0,0,0,.85-1,3.82,3.82,0,0,0,.74-2.92,18.34,18.34,0,0,0-1.49-5.19,19.54,19.54,0,0,0-3.91-5.84,13,13,0,0,0-2.78-2.15l-48-.43.21.15a10.14,10.14,0,0,1,1.51,1.69,21.94,21.94,0,0,1,2.45,4.56,32.44,32.44,0,0,1,1.92,6.35,18.59,18.59,0,0,1,.27,1.9,5.18,5.18,0,0,1-1.24,4l-.29.36" transform="translate(-550.82 -314.08)"/><path class="93ff69eb-527f-4257-91ca-b054cf6fe7f1" d="M752,385.83c-.12.16-9.67-15.49-9.07-16a65.8,65.8,0,0,0,6.22-4.37,5.1,5.1,0,0,1-.54.11c-1.14.13-2.27.3-3.42.37l-3.78.24c-2.18.13-4.35.2-6.53.24l-5.9.12c-7.63.17-15.25.1-22.88.1-8.25,0-16.5,0-24.75-.07h-4.15c-.21,0-.42,0-.63,0a4.18,4.18,0,0,0-.3,1.33c-.29,1.81-.56,3.61-.81,5.42-.2,1.46-.35,2.93-.52,4.4s-.3,2.79-.42,4.18-.19,2.56-.28,3.84c-.11,1.65-.21,3.3-.3,5-.06,1.07-.09,2.14-.13,3.21-.14,4.42-.17,8.83-.16,13.25q0,3.12,0,6.25c0,.21,0,.43,0,.66a3.22,3.22,0,0,0,.35.11l7.16,1.36c1.05.2,2.1.41,3.15.6.32.06.65.07,1,.1l.31-.53a6.21,6.21,0,0,1,1.28-1.65,4.74,4.74,0,0,1,5.1-1,6.45,6.45,0,0,1,2.28,1.49,10,10,0,0,1,2,2.89l.31.65c.48.08,1,.18,1.43.25l5.82.86c1.6.23,3.19.46,4.8.66s3,.34,4.46.51c1.33.15,2.67.3,4,.43,1.1.11,2.21.18,3.31.27l4.07.31,2.21.13c.86,0,1.71.1,2.57.11,2.7.05,5.41.18,8.11.12,1.34,0,2.69-.05,4-.12,1.5-.07,3-.19,4.48-.3,1.1-.08,2.21-.16,3.31-.27a74.2,74.2,0,0,0,8.42-1.25,24.61,24.61,0,0,0,5.4-1.84c.51-.24,1-.46,1.54-.69a.47.47,0,0,1,.5,0c0-.24-1.32-10.53-2-13.16a3.88,3.88,0,0,1-.22,1.92,5.65,5.65,0,0,1-.76,1.44,9.17,9.17,0,0,1-1.87,1.91,2.41,2.41,0,0,1-.33.19c-.18-.13-.15-.29-.17-.45-.08-.79-.14-1.59-.23-2.38s-.21-1.5-.31-2.25l0-.29a.42.42,0,0,1,.15-.41,6.18,6.18,0,0,0,1.92-3.39,1.27,1.27,0,0,1,.15-.43l-3.92-4.62s.13-6.1-.09-6.92-1.37-2.65-2.39-2.68a14.08,14.08,0,0,0-3.05.07m-70.08,14.37a9.71,9.71,0,0,1-1.29-.35,2.82,2.82,0,0,1-1.5-1.23,4.77,4.77,0,0,1-.59-1.39,6.73,6.73,0,0,1-.25-1.67c0-.76,0-1.52,0-2.27a.85.85,0,0,0-.14-.61,6.3,6.3,0,0,1-1.14-2.72,17.11,17.11,0,0,1-.36-3,50.12,50.12,0,0,1,.14-6.07c.15-1.74.34-3.48.53-5.22.15-1.39.33-2.78.48-4.17a1.07,1.07,0,0,1,1-1,2,2,0,0,1,.52,0,6.44,6.44,0,0,1,.91.18,7.71,7.71,0,0,1,2.83,1.46,5.42,5.42,0,0,1,.81.84,22.79,22.79,0,0,1,2.19,3.44,68,68,0,0,1,3.35,7.45c1.57,4,2.92,8.12,4.21,12.24l1.41,4.51c0,.09.05.18.09.33a1.19,1.19,0,0,1-.73-.15q-2.72-1-5.37-2.12l-1.33-.59a.48.48,0,0,1-.31-.45c-.1-1.06-.2-2.13-.34-3.19a20.4,20.4,0,0,0-.92-4.09,8.08,8.08,0,0,0-.71-1.53,2.74,2.74,0,0,0-1.72-1.3,7.19,7.19,0,0,0-1.26-.22,9.87,9.87,0,0,0-2.38.12c-.37.06-.42.11-.48.47a2.53,2.53,0,0,0,0,.29,35.57,35.57,0,0,0,0,5.42,13,13,0,0,0,.44,2.52c.05.17.1.33.16.5a3.25,3.25,0,0,0,1.8,2,18.15,18.15,0,0,0,4.11,1.28c.74.15,1.49.25,2.24.38.15,0,.29.08.44.12,0,.16-.16.12-.23.12l-1.69.08a23.13,23.13,0,0,1-4.88-.3m18,16.65a30.34,30.34,0,0,0-1.76-2.75,19.88,19.88,0,0,0-2.86-3.23,10.39,10.39,0,0,0-2.35-1.62,7.29,7.29,0,0,0-1.48-.53,3.9,3.9,0,0,0-3,.49,6.23,6.23,0,0,0-1.56,1.3c-.21.23-.39.49-.59.72a2.42,2.42,0,0,1-.29.25v0h0l0,0v-.06h0a1.9,1.9,0,0,1,.1-.31,8.51,8.51,0,0,1,1.77-2.44,4.74,4.74,0,0,1,2.45-1.27,4.26,4.26,0,0,1,1.79.11,7.59,7.59,0,0,1,2.76,1.35,11.71,11.71,0,0,1,2.32,2.37,21.27,21.27,0,0,1,2.91,5.56,3.58,3.58,0,0,1,.09.36c-.22-.08-.25-.24-.33-.37m20.09-4.92c-1.56-.33-3.12-.65-4.67-1-2.79-.62-5.56-1.29-8.3-2.1-1.47-.43-2.92-.93-4.35-1.49a3.48,3.48,0,0,1-2-1.88,10.93,10.93,0,0,1-.76-2.38,1.75,1.75,0,0,1,0-.32,3.06,3.06,0,0,1,.47,0l2.83.38,3,.41,3.06.41,3,.41,3.12.42,2.89.39.26.05a1.17,1.17,0,0,1,.27.66c.36,1.33.71,2.67,1.07,4,.13.49.28,1,.41,1.46,0,.18.09.37.13.54-.17.15-.32.08-.47,0m-1.72-17.59c-2.12,0-4.24-.06-6.36-.12q-2.54-.08-5.07-.23c-1.43-.09-2.87-.22-4.3-.34-.45,0-.89-.1-1.33-.16a4.51,4.51,0,0,1-1.94-.76,8.67,8.67,0,0,1-1.39-1.15,18.13,18.13,0,0,1-2.09-2.58,43.82,43.82,0,0,1-3.48-6.27,110.28,110.28,0,0,1-5-13.12c-.15-.48-.3-1-.46-1.51a3.21,3.21,0,0,1,.36-.09l.52,0,7.06-.15c3.11-.06,6.23-.09,9.34-.15,6.6-.13,13.19-.1,19.79,0,1.67,0,3.35.05,5,.1,1.83.06,3.65.14,5.48.22a2.17,2.17,0,0,1,1.05.3,9.14,9.14,0,0,1,1.2.82c.68.58,1.34,1.19,2,1.82a58,58,0,0,1,4.6,5.43,93.77,93.77,0,0,1,7.08,10.56,29,29,0,0,1,1.77,3.55,11.46,11.46,0,0,1,.46,1.38,3.4,3.4,0,0,1,.09.92c0,.38-.2.56-.58.6s-.54.06-.81.07l-3.09.15-3.38.18h-.23l-4.14.16-4.49.18h-.23l-6.71.15c-3.56.07-7.12.13-10.68.09m40,9.82a2.53,2.53,0,0,1,.34,0,2.6,2.6,0,0,1,.23,1,42.54,42.54,0,0,1,.43,5.58,19.3,19.3,0,0,1-.4,4.58,6.41,6.41,0,0,1-.58,1.65,6.14,6.14,0,0,1-.62.92,2.34,2.34,0,0,1-1.44.83q-1.78.32-3.56.6-1.47.24-2.94.43c-.87.11-1.74.2-2.61.28l-2,.18-2.27.15c-2.74.15-5.48.16-8.22.16-2,0-4,0-6.07,0a3.53,3.53,0,0,1-2.35-.86,7.4,7.4,0,0,1-1.35-1.53,16.71,16.71,0,0,1-1.56-2.93,40,40,0,0,1-2-6.09c-.24-1-.45-2-.67-3,0-.22-.07-.46-.1-.72a1.89,1.89,0,0,1,.35-.06l5.24.23h.41c2,.06,4.08.09,6.12.17,2.55.1,5.09.09,7.64.06,1.26,0,2.52-.11,3.79-.18l2.33-.15,2-.18,1.51-.15c1.31-.15,2.63-.28,3.94-.45s2.89-.39,4.33-.59" transform="translate(-550.82 -314.08)"/><path class="93ff69eb-527f-4257-91ca-b054cf6fe7f1" d="M634.39,406.82a9,9,0,0,1,.92.14l4.62,1,2.22.49c.17,0,.34,0,.55.07l.17-.75a9.46,9.46,0,0,1,.59-1.89,8.87,8.87,0,0,1,.52-1,2.82,2.82,0,0,1,.44-.54,1.57,1.57,0,0,1,2.26-.11,4.55,4.55,0,0,1,1.13,1.4,11.82,11.82,0,0,1,1.06,2.71c.1.38.18.76.27,1.13,0,.17.09.34.14.53s.37.12.55.16c3,.68,5.95,1.36,8.93,2,2.26.5,4.52,1,6.78,1.46.68.14,1.37.26,2.06.38a2.77,2.77,0,0,0,.44,0,2.19,2.19,0,0,0,.06-.38c0-1.07,0-2.14,0-3.21q-.1-3.94,0-7.88c0-.37,0-.74,0-1.11.05-2.16.09-4.32.16-6.48.05-1.58.14-3.15.23-4.72.1-1.73.21-3.46.35-5.18.17-2.13.36-4.26.59-6.39.2-1.93.42-3.87.69-5.79.35-2.45.75-4.88,1.13-7.32a2.22,2.22,0,0,1,.05-.29.27.27,0,0,1,.25-.21l.58,0,10.57.05,8.23,0c2,0,3.93,0,5.9,0a2.21,2.21,0,0,0,1.06-.25,6.52,6.52,0,0,0,1.49-1,3.35,3.35,0,0,0,1.12-2.82,21.15,21.15,0,0,0-.77-4.18,29.24,29.24,0,0,0-2.19-5.65,17.08,17.08,0,0,0-1.85-2.9,8.21,8.21,0,0,0-1.4-1.4,3.65,3.65,0,0,0-2.26-.81c-1.34,0-2.69,0-4-.08h-.17l-3.66-.05-32.56.23-4.59.08-6.3.1-.52,0h-1.06c0,.36-6.2,48.83-5.09,60.72,0-.22.13-.31.35-.28m41.71-54.94c.15-.13.33-.09.5-.09l3.44,0,8.52,0a2,2,0,0,1,.72.06,2,2,0,0,1,0,.34q-.16,1.77-.33,3.54-.14,1.45-.28,2.9c0,.46-.09.93-.14,1.39a1.68,1.68,0,0,1-.08.28,2.58,2.58,0,0,1-.36,0c-4.18,0-8.36-.09-12.6-.15a3.13,3.13,0,0,1,0-.35c0-.81.53-7.5.62-7.9m-23.5,35.36q.17-2.56.34-5.12c.14-2,.28-4,.42-6,.06-.83.1-1.67.15-2.5,0-.62.08-1.24.13-1.86,0-.33.1-.4.44-.4s.82,0,1.22.05l6.71.16,4.26.12a1.19,1.19,0,0,1,.68.13,2.87,2.87,0,0,1,0,.35q-.74,8.6-1.49,17.2a.77.77,0,0,1-.06.19l-.08.05h-.06l-1-.1-11.51-1.47a.74.74,0,0,1-.17-.07,1.74,1.74,0,0,1,0-.75m-7.6,12.9a1.61,1.61,0,0,1,1.8-.25,3.6,3.6,0,0,1,1.25.93,7.2,7.2,0,0,1,1.08,1.66,16.1,16.1,0,0,1,1,2.9,26.87,26.87,0,0,1,.76,4c-.13,0-.12-.07-.15-.12a1.24,1.24,0,0,1-.07-.22c-.28-.93-.53-1.87-.83-2.79a15.93,15.93,0,0,0-1.15-2.68,8.17,8.17,0,0,0-1.08-1.59,3.64,3.64,0,0,0-1.14-.89,1.43,1.43,0,0,0-1.59.15,4.08,4.08,0,0,0-.78.78c-.26.36-.47.76-.7,1.14l-.3.47v0h0l0,.06a.09.09,0,0,1,0,0l0,0v0h0a1.41,1.41,0,0,1,0-.33,8.29,8.29,0,0,1,1.1-2.37,4.42,4.42,0,0,1,.74-.82m-7.84-14.6q.07-1.28.15-2.56c.05-.87.12-1.75.18-2.62s.1-1.9.16-2.85c.1-1.57.2-3.14.3-4.71,0-.39,0-.78.05-1.17a1.11,1.11,0,0,1,.14-.63.91.91,0,0,1,.21,0l5.95.14a1.64,1.64,0,0,1,.25.05,2.86,2.86,0,0,1,0,.4c-.05,1-.11,1.94-.17,2.91-.05.8-.12,1.59-.18,2.38-.1,1.46-.18,2.91-.27,4.37s-.2,2.83-.3,4.25c0,.29,0,.58,0,.87a.81.81,0,0,1-.13.52.71.71,0,0,1-.21,0l-5.84-.73a.76.76,0,0,1-.2-.08.75.75,0,0,1-.07-.53" transform="translate(-550.82 -314.08)"/><path class="5897021c-7f7e-4a9d-a765-d74fe8c1d3b9" d="M737.39,346.47c-.17-1.36-.34-2.7-.5-4.07a14.9,14.9,0,0,1,4.32,4.11l2.56,0,.12,0c-9.21-12.92-13-4.11-15.49-.17Z" transform="translate(-550.82 -314.08)"/><path class="5897021c-7f7e-4a9d-a765-d74fe8c1d3b9" d="M637.48,360.16c.66-5.76,1.22-10.34,1.48-12.47-11.43,4.72-67.8,55.25-88.15,74.21H628c-.29-.74-.58-1.45-.86-2.2-9.55-12.25-14.45-5.27-21.68-10.13-1.1-.73-22.47-4.79-18-6.42,8-2.9,20.24-21.83,19.74-14.48-.85,12.46,15.87,26,11.86,10.78C613.9,380,631.9,382,629.33,377.66c-4-6.77,2.33-13.65,8.15-17.5" transform="translate(-550.82 -314.08)"/><path class="5897021c-7f7e-4a9d-a765-d74fe8c1d3b9" d="M850.48,421.9a182.8,182.8,0,0,1-55.68-40.33c-13.06-13.83-9.68-22.52-20.34-15.09-7.5,5.22-18.44-2.37-22.21-6.09a18.12,18.12,0,0,1-.68,2c0,.07-.07.14-.11.21.75.69,1.52,1.31,2.08,1.74a33.62,33.62,0,0,0,8.19,4.71,17.09,17.09,0,0,0,9.4,1.17,11.75,11.75,0,0,0,4.48-1.88c.83-.58,3.45-2.41,4.79-2.35.21,4.47.83,5.8-3,7.21-.42,2.16,4.47,3.65,2.14,9-.48,1.1,1.92,10,3,12.19-5,4.57,5.85,10.43,7.19,18.63.51,3.11,5.61-9.54,8.15-8.62.11.14,15.92,11.85,20.65,15.33-.22.75-.44,1.46-.67,2.2Z" transform="translate(-550.82 -314.08)"/><path class="5897021c-7f7e-4a9d-a765-d74fe8c1d3b9" d="M684.15,346c1.22-7.19,8.9-12.05,11.88-29.62a9.78,9.78,0,0,1,1.79.37c5.15,1.57,7.67,7.3,9,12.32.56,2.07,6.29,8.82,7.78,10.53a48.64,48.64,0,0,0,6.82,6.77l4,0c-.06-.17-.13-.35-.19-.55-3.4.28-16-15.8-16.42-17.39-8.53-31.43-37.92-3.27-50.11,9.41-4.24,4.41-6.78,7-8.7,8.36Z" transform="translate(-550.82 -314.08)"/></svg>