<svg id="5aec99e5-8715-4e93-84b3-7c264662d3b4" data-name="Layer 1" xmlns="http://www.w3.org/2000/svg" xmlns:xlink="http://www.w3.org/1999/xlink" viewBox="0 0 861.23 376.47"><defs><style>.\35 aa84e14-7345-4874-86e9-bee8dcdeeebd{fill:none;}.\36 01f474c-e0d4-4fa1-81b1-a41e43da4c07{clip-path:url(#e19d7eef-8a62-4f57-8d1f-5697e30b47c8);}.\39 e8d9a20-eca4-4e7a-9de1-3f503d75d06c{fill:#fff;}.bfadd96c-c86a-4a7b-8070-34e0c23f98d4{fill:#efa630;}</style><clipPath id="e19d7eef-8a62-4f57-8d1f-5697e30b47c8" transform="translate(-569.38 -811.77)"><rect class="5aa84e14-7345-4874-86e9-bee8dcdeeebd" width="2000" height="2000"/></clipPath></defs><title>logo-admin</title><g class="601f474c-e0d4-4fa1-81b1-a41e43da4c07"><path class="9e8d9a20-eca4-4e7a-9de1-3f503d75d06c" d="M625.77,1096.23a4.38,4.38,0,0,1-3.15,7.53H603v57.81a4.75,4.75,0,1,1-9.5,0v-57.81H573.77a4.38,4.38,0,1,1,0-8.77h48.86a4.27,4.27,0,0,1,3.15,1.23" transform="translate(-569.38 -811.77)"/><path class="9e8d9a20-eca4-4e7a-9de1-3f503d75d06c" d="M632.49,1163.44a22.89,22.89,0,0,1-8.95-9,28.46,28.46,0,0,1,0-26.21,22.91,22.91,0,0,1,8.95-9,26.15,26.15,0,0,1,13.06-3.24,25.71,25.71,0,0,1,12.92,3.24,23.33,23.33,0,0,1,8.95,9,28.28,28.28,0,0,1,0,26.21,23,23,0,0,1-8.9,9,27.84,27.84,0,0,1-26.07,0m21.42-7.17a15.14,15.14,0,0,0,5.75-6.07,18.54,18.54,0,0,0,2.05-8.81,18.82,18.82,0,0,0-2.05-8.86,15.09,15.09,0,0,0-5.75-6.12,17,17,0,0,0-16.71,0,15.38,15.38,0,0,0-5.8,6.12,18.46,18.46,0,0,0-2.1,8.86,18.2,18.2,0,0,0,2.1,8.81,15.45,15.45,0,0,0,5.8,6.07,17,17,0,0,0,16.71,0" transform="translate(-569.38 -811.77)"/><path class="9e8d9a20-eca4-4e7a-9de1-3f503d75d06c" d="M722.48,1119.33a24,24,0,0,1,9.09,9.13,25.74,25.74,0,0,1,3.29,12.92,27.26,27.26,0,0,1-3.06,12.92,23.07,23.07,0,0,1-8.4,9.09,22.78,22.78,0,0,1-29.54-5V1183a4.75,4.75,0,0,1-8,3.38,4.49,4.49,0,0,1-1.32-3.38v-41.64a25.45,25.45,0,0,1,3.33-12.92A24.63,24.63,0,0,1,709.65,1116a25.3,25.3,0,0,1,12.83,3.33m-4.57,36.89a16.12,16.12,0,0,0,5.84-6.12,17.73,17.73,0,0,0,2.15-8.72,18,18,0,0,0-2.15-8.77,16.07,16.07,0,0,0-5.84-6.17,15.9,15.9,0,0,0-22.33,6.17,18.29,18.29,0,0,0-2.1,8.77,18,18,0,0,0,2.1,8.72,16.13,16.13,0,0,0,22.33,6.12" transform="translate(-569.38 -811.77)"/><path class="bfadd96c-c86a-4a7b-8070-34e0c23f98d4" d="M763.76,1162.57a32.56,32.56,0,0,1-12.83-13,41.5,41.5,0,0,1,0-37.85,32.66,32.66,0,0,1,12.83-13,40.32,40.32,0,0,1,37.62,0,33,33,0,0,1,12.88,13,41.15,41.15,0,0,1,0,37.85,33,33,0,0,1-12.83,13,40.41,40.41,0,0,1-37.67,0m32.83-7.62a25.92,25.92,0,0,0,9.68-10.09,31,31,0,0,0,0-28.49,25.71,25.71,0,0,0-9.63-10,28.73,28.73,0,0,0-28,0,25.71,25.71,0,0,0-9.64,10,31,31,0,0,0,0,28.49,25.9,25.9,0,0,0,9.68,10.09,28.24,28.24,0,0,0,27.94,0" transform="translate(-569.38 -811.77)"/><path class="bfadd96c-c86a-4a7b-8070-34e0c23f98d4" d="M871.7,1119.29a23.07,23.07,0,0,1,8.4,9.09,27.28,27.28,0,0,1,3.06,12.92,25.73,25.73,0,0,1-3.29,12.92,24,24,0,0,1-9.09,9.13,25.27,25.27,0,0,1-12.83,3.33,24.63,24.63,0,0,1-21.78-12.47,25.44,25.44,0,0,1-3.33-12.92v-41.64a4.48,4.48,0,0,1,1.32-3.38,4.64,4.64,0,0,1,8,3.38v24.66a23,23,0,0,1,29.54-5m-5.48,36.94a16,16,0,0,0,5.84-6.16,18,18,0,0,0,2.15-8.77,17.74,17.74,0,0,0-2.15-8.72,16.16,16.16,0,0,0-5.84-6.12,15.95,15.95,0,0,0-22.33,6.12,18,18,0,0,0-2.1,8.72,18.27,18.27,0,0,0,2.1,8.77,16.1,16.1,0,0,0,22.33,6.16" transform="translate(-569.38 -811.77)"/><path class="bfadd96c-c86a-4a7b-8070-34e0c23f98d4" d="M935.3,1120.38a5.75,5.75,0,0,1-.55,2.19l-27.94,62.83q-1.1,2.83-3.56,2.83a5.77,5.77,0,0,1-2.19-.55q-2.74-1.19-2.74-3.56a4.87,4.87,0,0,1,.55-2.19l9.13-20.55-20.55-39a3.88,3.88,0,0,1-.46-1.92,3.65,3.65,0,0,1,.73-2.19,4.8,4.8,0,0,1,1.92-1.55,4.44,4.44,0,0,1,1.83-.37,4.1,4.1,0,0,1,3.84,2.56L912,1152.16l14.7-33.15q1.19-2.65,3.56-2.65a5.25,5.25,0,0,1,2.19.46q2.83,1.1,2.83,3.56" transform="translate(-569.38 -811.77)"/><path class="bfadd96c-c86a-4a7b-8070-34e0c23f98d4" d="M967.58,1158.46a4.76,4.76,0,0,1,1.14,3.29,4.11,4.11,0,0,1-1.51,3.29,5.79,5.79,0,0,1-3.88,1.28h-1.64a15,15,0,0,1-8.17-2.33,16.22,16.22,0,0,1-5.8-6.35,19.21,19.21,0,0,1-2.1-9V1126h-4.2a4.4,4.4,0,0,1-3.11-1.1,3.58,3.58,0,0,1-1.19-2.74,3.79,3.79,0,0,1,1.19-2.92,4.4,4.4,0,0,1,3.11-1.1h4.2V1105a4.57,4.57,0,1,1,9.13,0v13.15h7.76a4.4,4.4,0,0,1,3.11,1.1,3.79,3.79,0,0,1,1.19,2.92,3.58,3.58,0,0,1-1.19,2.74,4.4,4.4,0,0,1-3.11,1.1h-7.76v22.56a9.37,9.37,0,0,0,2,6.12,6.14,6.14,0,0,0,4.93,2.47h3.1a3.6,3.6,0,0,1,2.79,1.28" transform="translate(-569.38 -811.77)"/><path class="bfadd96c-c86a-4a7b-8070-34e0c23f98d4" d="M1016.3,1118.65a19.3,19.3,0,0,1,7.85,8,26.32,26.32,0,0,1,2.83,12.65v22.46a4.66,4.66,0,1,1-9.31,0v-22.46q0-7.4-4-11.19t-10.55-3.79a15.6,15.6,0,0,0-7,1.55,12.38,12.38,0,0,0-4.93,4.2,10.4,10.4,0,0,0-1.78,5.94v25.75a4.61,4.61,0,0,1-1.28,3.33,4.68,4.68,0,0,1-8-3.33V1121a4.48,4.48,0,0,1,1.32-3.38,4.64,4.64,0,0,1,8,3.38v1a20.33,20.33,0,0,1,6.94-4.52,24.37,24.37,0,0,1,19.91,1.14" transform="translate(-569.38 -811.77)"/><path class="bfadd96c-c86a-4a7b-8070-34e0c23f98d4" d="M1086.07,1143.44a4.17,4.17,0,0,1-3,1.14h-34.7a16.09,16.09,0,0,0,5.8,10.32,18.54,18.54,0,0,0,17.44,2.92,17,17,0,0,0,4.89-2.46,4.73,4.73,0,0,1,3-1,3.92,3.92,0,0,1,2.74.91,4,4,0,0,1,1.64,3.1,3.31,3.31,0,0,1-1.46,2.74,25.25,25.25,0,0,1-7.72,4,27.9,27.9,0,0,1-22.24-1.69,23.52,23.52,0,0,1-9.27-9,25.55,25.55,0,0,1-3.33-13.06,27,27,0,0,1,3.15-13.11,22.8,22.8,0,0,1,8.77-9,25,25,0,0,1,12.74-3.24,23,23,0,0,1,12.15,3.11,20.49,20.49,0,0,1,7.85,8.67,28.62,28.62,0,0,1,2.74,12.79,3.83,3.83,0,0,1-1.19,2.88m-32.37-15.94a16.39,16.39,0,0,0-5.25,9.77h30.41a16.2,16.2,0,0,0-4.57-9.77,13.4,13.4,0,0,0-9.77-3.65q-6.67,0-10.82,3.65" transform="translate(-569.38 -811.77)"/><path class="9e8d9a20-eca4-4e7a-9de1-3f503d75d06c" d="M1155.24,1096.09a3.75,3.75,0,0,1,1.14,2.83,6.06,6.06,0,0,1-.55,2.37l-27,62a4.3,4.3,0,0,1-4.29,3,4.51,4.51,0,0,1-4.29-3l-26.76-61.18a9.32,9.32,0,0,1-.73-3.2,3.71,3.71,0,0,1,1.14-2.88,4.48,4.48,0,0,1,3.15-1,4.36,4.36,0,0,1,4.38,2.83l23,55.16,23.38-55.16a4.26,4.26,0,0,1,1.64-2.24,5.18,5.18,0,0,1,2.65-.59,4.37,4.37,0,0,1,3.15,1.1" transform="translate(-569.38 -811.77)"/><path class="9e8d9a20-eca4-4e7a-9de1-3f503d75d06c" d="M1166,1163.44a22.89,22.89,0,0,1-8.95-9,28.46,28.46,0,0,1,0-26.21,22.91,22.91,0,0,1,8.95-9A26.14,26.14,0,0,1,1179,1116a25.71,25.71,0,0,1,12.92,3.24,23.33,23.33,0,0,1,9,9,28.28,28.28,0,0,1,0,26.21,23,23,0,0,1-8.9,9,27.84,27.84,0,0,1-26.07,0m21.41-7.17a15.14,15.14,0,0,0,5.75-6.07,18.55,18.55,0,0,0,2.06-8.81,18.83,18.83,0,0,0-2.06-8.86,15.08,15.08,0,0,0-5.75-6.12,17,17,0,0,0-16.71,0,15.39,15.39,0,0,0-5.8,6.12,18.48,18.48,0,0,0-2.1,8.86,18.21,18.21,0,0,0,2.1,8.81,15.45,15.45,0,0,0,5.8,6.07,17,17,0,0,0,16.71,0" transform="translate(-569.38 -811.77)"/><path class="9e8d9a20-eca4-4e7a-9de1-3f503d75d06c" d="M1255.47,1162q0,4.29-4.29,4.29H1220q-4.29,0-4.29-4.29a4.76,4.76,0,0,1,.82-2.92l25.84-34.15h-23.29q-4.29,0-4.29-4.29t4.29-4.29h31.14q4.29,0,4.29,4.29a4.75,4.75,0,0,1-.82,2.92L1228,1157.73h23.19q4.29,0,4.29,4.29" transform="translate(-569.38 -811.77)"/><path class="9e8d9a20-eca4-4e7a-9de1-3f503d75d06c" d="M1308.34,1120.38a5.75,5.75,0,0,1-.55,2.19l-27.94,62.83q-1.1,2.83-3.56,2.83a5.77,5.77,0,0,1-2.19-.55q-2.74-1.19-2.74-3.56a4.88,4.88,0,0,1,.55-2.19l9.13-20.55-20.55-39a3.88,3.88,0,0,1-.46-1.92,3.65,3.65,0,0,1,.73-2.19,4.8,4.8,0,0,1,1.92-1.55,4.44,4.44,0,0,1,1.83-.37,4.1,4.1,0,0,1,3.84,2.56l16.71,33.24,14.7-33.15q1.19-2.65,3.56-2.65a5.25,5.25,0,0,1,2.19.46q2.83,1.1,2.83,3.56" transform="translate(-569.38 -811.77)"/><path class="9e8d9a20-eca4-4e7a-9de1-3f503d75d06c" d="M1314.78,1165.91a6,6,0,0,1-1.87-4.43,6.16,6.16,0,0,1,1.87-4.52,6.17,6.17,0,0,1,8.86,0,6.34,6.34,0,0,1,0,8.95,6.23,6.23,0,0,1-8.9,0" transform="translate(-569.38 -811.77)"/><path class="9e8d9a20-eca4-4e7a-9de1-3f503d75d06c" d="M1348,1163.39a23.44,23.44,0,0,1-9-9.09,26,26,0,0,1-3.24-12.92,27,27,0,0,1,3.15-13.1,22.69,22.69,0,0,1,8.81-9,25.28,25.28,0,0,1,12.79-3.24,22.7,22.7,0,0,1,17.9,8.22,3.42,3.42,0,0,1,.91,2.37,4,4,0,0,1-2,3.38,3.57,3.57,0,0,1-2.1.64,4.58,4.58,0,0,1-3.56-1.64,14.57,14.57,0,0,0-5-3.61,15.7,15.7,0,0,0-6.16-1.14,14.89,14.89,0,0,0-11.42,4.7q-4.38,4.71-4.38,12.47a18.52,18.52,0,0,0,2.06,8.81,15.14,15.14,0,0,0,5.75,6.07,16.24,16.24,0,0,0,8.45,2.19q6.21,0,10-3.2a5.72,5.72,0,0,1,3.38-1.28,3.88,3.88,0,0,1,2.37.82,4.25,4.25,0,0,1,1.73,3.29,3.41,3.41,0,0,1-1.1,2.47,23.2,23.2,0,0,1-16.44,6.12,25.67,25.67,0,0,1-13-3.29" transform="translate(-569.38 -811.77)"/><path class="9e8d9a20-eca4-4e7a-9de1-3f503d75d06c" d="M1430.62,1162q0,4.29-4.29,4.29h-31.14q-4.29,0-4.29-4.29a4.76,4.76,0,0,1,.82-2.92l25.84-34.15h-23.29q-4.29,0-4.29-4.29t4.29-4.29h31.14q4.29,0,4.29,4.29a4.75,4.75,0,0,1-.82,2.92l-25.75,34.15h23.19q4.29,0,4.29,4.29" transform="translate(-569.38 -811.77)"/><polygon class="bfadd96c-c86a-4a7b-8070-34e0c23f98d4" points="371.96 84.1 562 84.1 579.44 107.67 371.96 107.67 371.96 84.1"/><path class="9e8d9a20-eca4-4e7a-9de1-3f503d75d06c" d="M1055.54,979.4a4,4,0,1,0,8,0V936.25a4,4,0,0,0-4-4h-41.18a4,4,0,0,0-4,4v52.48a730.8,730.8,0,0,1-46.26,61.76c-12.8-15.58-62.51-77.73-78.94-122.39a4,4,0,0,0-7.52,2.77C901,983.38,962.4,1056.25,965,1059.32a4,4,0,0,0,3,1.42h0a4,4,0,0,0,3-1.39,732.15,732.15,0,0,0,50.61-67.21,4,4,0,0,0,.66-2.21V940.26h33.17Z" transform="translate(-569.38 -811.77)"/><path class="9e8d9a20-eca4-4e7a-9de1-3f503d75d06c" d="M1187.52,949l-34.59-5.76-20.42-20.08H1151a4,4,0,0,0,3.14-6.49l-19.68-24.84a4.14,4.14,0,0,0-3.17-1.51l-56.11.31a4,4,0,0,0,0,8h0l54.15-.29,13.33,16.79H967.82a4,4,0,0,0-4,4v30.18a4,4,0,0,0,4,4h26.88v32.55h-9.86a17.84,17.84,0,0,0-34.78,0h-6.76V898.69h112.45a4,4,0,0,0,4-4.42A92.2,92.2,0,0,0,875.88,904a4,4,0,0,0,7.07,2.59l44.16-52,20.46,16.4L939,879.18a4,4,0,1,0,5.57,5.77L990,841.09l37.32,30.3a4,4,0,1,0,5.05-6.22l-40.08-32.54a4,4,0,0,0-5.31.23l-33.6,32.44-24.3-19.48a4,4,0,0,0-5.56.52L884.74,892a84.19,84.19,0,0,1,166.47-1.38H939.3a4,4,0,0,0-4,4v95.26a4,4,0,0,0,4,4h10.77a17.85,17.85,0,0,0,34.78,0h13.87a4,4,0,0,0,4-4V949.38a4,4,0,0,0-4-4H971.83V923.2h149.25l27.14,26.68a4,4,0,0,0,2.15,1.1l32.49,5.41v29.54H1163.7a17.84,17.84,0,0,0-34.78,0h-91.69a4,4,0,0,0,0,8h91.69a17.85,17.85,0,0,0,34.78,0h23.17a4,4,0,0,0,4-4V953a4,4,0,0,0-3.35-4M967.45,999.76a9.81,9.81,0,0,1-9-5.81,9.69,9.69,0,0,1,0-8,9.8,9.8,0,0,1,17.92,0,9.68,9.68,0,0,1,0,8,9.82,9.82,0,0,1-9,5.81m178.86,0a9.81,9.81,0,0,1-9-5.81,9.68,9.68,0,0,1,0-8,9.8,9.8,0,0,1,17.92,0,9.69,9.69,0,0,1,0,8,9.82,9.82,0,0,1-9,5.81" transform="translate(-569.38 -811.77)"/><path class="9e8d9a20-eca4-4e7a-9de1-3f503d75d06c" d="M1135.15,958.34a4,4,0,0,0,2.82-6.87l-22.74-22.39a4,4,0,0,0-2.81-1.16h-16a4,4,0,0,0-4,4v22.41a4,4,0,0,0,4,4Zm-34.75-22.41h10.38l14.59,14.39h-25Z" transform="translate(-569.38 -811.77)"/></g></svg>