<svg id="Layer_1" data-name="Layer 1" xmlns="http://www.w3.org/2000/svg" xmlns:xlink="http://www.w3.org/1999/xlink" viewBox="0 0 290.63 264.64"><defs><style>.cls-1{fill:none;}.cls-2{clip-path:url(#clip-path);}.cls-3{fill:#fff;}</style><clipPath id="clip-path" transform="translate(0 0)"><rect class="cls-1" width="290.63" height="264.64"/></clipPath></defs><title>awning</title><g class="cls-2"><path class="cls-3" d="M290.54,66.29,239,0H45.25L.27,66.2v.18L0,66.74l.27.18V264.64H15.11v-129a33.81,33.81,0,0,0,46.51-6.93,33.81,33.81,0,0,0,53.61,0,33.81,33.81,0,0,0,53.61,0,33.81,33.81,0,0,0,53.61,0,33.72,33.72,0,0,0,47.4,6.21,33.21,33.21,0,0,0,5.94-5.85V264.46h14.84ZM53.07,14.84H231.71l39.76,51.27H18.26ZM34.72,127.19a19.39,19.39,0,0,1-19.34-19.43V81H54.06v26.81a19.44,19.44,0,0,1-19.34,19.43h0m53.61,0A19.39,19.39,0,0,1,69,107.76V81h38.68v26.81A19.14,19.14,0,0,1,88.6,127.1a.7.7,0,0,1-.27.09m53.52,0a19.52,19.52,0,0,1-19.43-19.43V81H161.1v26.81A19.14,19.14,0,0,1,142,127.1c0,.09-.09.09-.18.09m53.61,0A19.52,19.52,0,0,1,176,107.76V81h38.68v26.81a19.31,19.31,0,0,1-19.25,19.43h0m53.52,0a19.39,19.39,0,0,1-19.34-19.43V81h38.68v26.81a19.14,19.14,0,0,1-19.07,19.34.33.33,0,0,1-.27.09" transform="translate(0 0)"/><polyline class="cls-3" points="15.38 73.43 280.71 73.43 232.71 6.12 52.19 6.12 15.38 70.82"/></g></svg>