<svg id="Capa_1" data-name="Capa 1" xmlns="http://www.w3.org/2000/svg" viewBox="0 0 388.4 388.4"><defs><style>.cls-1{fill:#fff;}</style></defs><path class="cls-1" d="M307.6,153.2a86.15,86.15,0,0,0-32,6.4L262,133.2v-42a6,6,0,0,0-4-5.6l-32-12a5.95,5.95,0,1,0-4,11.2l28.4,10.4v34H133.2V117.6h14.4a6,6,0,0,0,0-12H110.4a6,6,0,0,0,0,12h10.8V134l-11.6,25.2a77,77,0,0,0-28.8-5.6,80.8,80.8,0,0,0,0,161.6c42.4,0,77.2-33.2,80.4-74.8h26A5.7,5.7,0,0,0,192,238l62.8-90.8,10,18.8c-22.8,13.6-38,39.2-38,68a80.8,80.8,0,1,0,80.8-80.8ZM80.8,302.8a68.8,68.8,0,0,1,0-137.6,65.16,65.16,0,0,1,23.6,4.4l-29.2,62v.4a3.61,3.61,0,0,0-.4,2v.4a3.61,3.61,0,0,0,.4,2v.4c0,.4,0,.4.4.8,0,.4.4.4.8.8v.4c.4.4,1.2.8,1.6,1.2h.4a3.61,3.61,0,0,0,2,.4h68.4A68.06,68.06,0,0,1,80.8,302.8ZM90,228l25.2-53.2a68.3,68.3,0,0,1,34,53.2Zm94,0H160.8c-2-27.6-18-51.2-40.8-64.4l10.8-22.8H244Zm123.2,74.8A68.8,68.8,0,0,1,238.4,234c0-24.4,12.8-45.6,32-58L302,236.8a6.24,6.24,0,0,0,5.2,3.2,7.42,7.42,0,0,0,2.8-.8,6,6,0,0,0,2.4-8l-31.6-60.8a73.87,73.87,0,0,1,26.4-5.2,68.8,68.8,0,1,1,0,137.6Z"/></svg>