<svg id="Layer_1" data-name="Layer 1" xmlns="http://www.w3.org/2000/svg" xmlns:xlink="http://www.w3.org/1999/xlink" viewBox="0 0 457.76 457.75"><defs><style>.cls-1{fill:none;}.cls-2{clip-path:url(#clip-path);}.cls-3{fill:#fff;}</style><clipPath id="clip-path" transform="translate(0 0)"><rect class="cls-1" width="457.76" height="457.76"/></clipPath></defs><title>broom</title><g class="cls-2"><path class="cls-3" d="M455.41,35.6a8,8,0,0,0-11.32,0L290.5,189.19l-21.94-21.94,153.6-153.6A8,8,0,1,0,410.84,2.34l-153.6,153.6-11.66-11.66a24,24,0,0,0-33.94,0L206,149.94a24,24,0,0,0-5.66,24.87c-75.59,36.5-142.95,66.33-195.2,86.46A8,8,0,0,0,.43,271.33a298.95,298.95,0,0,0,186,186,8,8,0,0,0,10.06-4.69c20.12-52.25,49.95-119.6,86.44-195.18a24.16,24.16,0,0,0,7.92,1.33,23.83,23.83,0,0,0,17-7l5.65-5.66a24,24,0,0,0,0-33.94l-11.65-11.66,153.6-153.6a8,8,0,0,0,0-11.32M210,187.91l6.19,6.19-64.64,45.08a8,8,0,1,0,9.15,13.12l67-46.71,6.58,6.58L77.62,368.82a283.46,283.46,0,0,1-29.92-37.7l84.68-59.06a8,8,0,1,0-9.15-13.12l-84,58.6a283.42,283.42,0,0,1-21.05-44.16C70.36,252.93,136.39,223.52,210,187.91M184.38,439.6a283.46,283.46,0,0,1-44.16-21.05l15-21.53a8,8,0,0,0-13.12-9.15l-15.48,22.2a283.48,283.48,0,0,1-37.7-29.92L245.59,223.48l6.58,6.58L163,357.86A8,8,0,1,0,176.15,367l87.5-125.47,6.19,6.19c-35.61,73.63-65,139.65-85.46,191.86m117.77-204.8-5.66,5.66a8,8,0,0,1-11.31,0l-33.93-33.93h0l-33.93-33.93a8,8,0,0,1,0-11.31L223,155.6a8,8,0,0,1,11.31,0l67.88,67.88a8,8,0,0,1,0,11.31" transform="translate(0 0)"/></g></svg>