<svg id="Layer_1" data-name="Layer 1" xmlns="http://www.w3.org/2000/svg" xmlns:xlink="http://www.w3.org/1999/xlink" viewBox="0 0 123.89 141.7"><defs><style>.cls-1{fill:none;}.cls-2{clip-path:url(#clip-path);}.cls-3{fill:#fff;}</style><clipPath id="clip-path" transform="translate(0 0)"><rect class="cls-1" width="123.89" height="141.7"/></clipPath></defs><title>clima</title><g class="cls-2"><path class="cls-3" d="M65.81,72.61a4,4,0,0,1-2-7.46L78.05,56.9a4,4,0,1,1,4,6.92L67.82,72.07a4,4,0,0,1-2,.54" transform="translate(0 0)"/><path class="cls-3" d="M91.93,57.48a4,4,0,0,1-2-7.46l27.86-16.14a4,4,0,1,1,4,6.92L93.93,56.94a4,4,0,0,1-2,.54" transform="translate(0 0)"/><path class="cls-3" d="M118.21,60.21a4,4,0,0,1-1.75-.41l-17-8.28a4,4,0,0,1-2.23-3.9L98.65,29a4,4,0,1,1,8,.61l-1.21,15.9L120,52.62a4,4,0,0,1-1.76,7.6" transform="translate(0 0)"/><path class="cls-3" d="M80.08,85.29a4,4,0,0,1-2-.53L63.82,76.54a4,4,0,1,1,4-6.93l14.27,8.21a4,4,0,0,1-2,7.47" transform="translate(0 0)"/><path class="cls-3" d="M119.88,108.19a4,4,0,0,1-2-.53L90,91.6a4,4,0,0,1,4-6.93l27.91,16.06a4,4,0,0,1-2,7.47" transform="translate(0 0)"/><path class="cls-3" d="M102.75,116.26a4,4,0,0,1-4-3.72L97.44,93.68A4,4,0,0,1,99.7,89.8l16.82-8.08A4,4,0,0,1,120,88.93l-14.37,6.9L106.74,112a4,4,0,0,1-3.71,4.27h-.28" transform="translate(0 0)"/><path class="cls-3" d="M62,95.78a4,4,0,0,1-4-4l0-16.46a4,4,0,0,1,4-4h0a4,4,0,0,1,4,4l0,16.46a4,4,0,0,1-4,4Z" transform="translate(0 0)"/><path class="cls-3" d="M62,141.7a4,4,0,0,1-4-4l0-32.2a4,4,0,0,1,4-4h0a4,4,0,0,1,4,4l0,32.2a4,4,0,0,1-4,4Z" transform="translate(0 0)"/><path class="cls-3" d="M46.49,130.9a4,4,0,0,1-2.24-7.32L59.92,113a4,4,0,0,1,4.49,0l15.4,10.52a4,4,0,1,1-4.51,6.61l-13.16-9-13.42,9.05a4,4,0,0,1-2.23.68" transform="translate(0 0)"/><path class="cls-3" d="M43.84,85.34a4,4,0,0,1-2-7.46l14.24-8.25a4,4,0,0,1,4,6.92L45.84,84.81a4,4,0,0,1-2,.54" transform="translate(0 0)"/><path class="cls-3" d="M4.1,108.36a4,4,0,0,1-2-7.46L30,84.76a4,4,0,1,1,4,6.92L6.1,107.82a4,4,0,0,1-2,.54" transform="translate(0 0)"/><path class="cls-3" d="M21.26,116.38H21a4,4,0,0,1-3.68-4.29l1.21-15.89L3.93,89.08a4,4,0,0,1,3.51-7.19l17,8.29a4,4,0,0,1,2.23,3.9l-1.41,18.6a4,4,0,0,1-4,3.7" transform="translate(0 0)"/><path class="cls-3" d="M58.07,72.62a4,4,0,0,1-2-.53L41.81,63.88a4,4,0,1,1,4-6.93l14.27,8.21a4,4,0,0,1-2,7.47" transform="translate(0 0)"/><path class="cls-3" d="M31.91,57.57a4,4,0,0,1-2-.53L2,41A4,4,0,1,1,6,34L33.91,50.1a4,4,0,0,1-2,7.47" transform="translate(0 0)"/><path class="cls-3" d="M5.64,60.38a4,4,0,0,1-1.73-7.61l14.37-6.9L17.14,29.72a4,4,0,0,1,8-.56L26.44,48a4,4,0,0,1-2.26,3.88L7.37,60a4,4,0,0,1-1.73.39" transform="translate(0 0)"/><path class="cls-3" d="M61.94,74.69a4,4,0,0,1-4-4l0-20.77a4,4,0,0,1,4-4h0a4,4,0,0,1,4,4l0,20.77a4,4,0,0,1-4,4Z" transform="translate(0 0)"/><path class="cls-3" d="M61.89,40.2a4,4,0,0,1-4-4l0-32.2a4,4,0,0,1,4-4h0a4,4,0,0,1,4,4l0,32.2a4,4,0,0,1-4,4Z" transform="translate(0 0)"/><path class="cls-3" d="M61.73,29.37a4,4,0,0,1-2.26-.7L44.07,18.15a4,4,0,0,1,4.51-6.6l13.16,9,13.42-9.05a4,4,0,0,1,4.47,6.63L64,28.69a4,4,0,0,1-2.24.68" transform="translate(0 0)"/></g></svg>