<svg id="Vrstva_1" data-name="Vrstva 1" xmlns="http://www.w3.org/2000/svg" viewBox="0 0 512 512"><defs><style>.cls-1{fill:#fff;fill-rule:evenodd;}</style></defs><path class="cls-1" d="M502,123H293.77V89a10,10,0,0,0-10-10H228.23a10,10,0,0,0-10,10v34H10A10,10,0,0,0,0,133V313.48a10,10,0,0,0,20,0V143H218.23v34.05a10,10,0,0,0,10,10h55.54a10,10,0,0,0,10-10V143H492v20a10,10,0,0,0,20,0V133A10,10,0,0,0,502,123ZM273.77,167.09H238.23V99h35.54Z"/><path class="cls-1" d="M502,233a10,10,0,0,0-10,10V413.48H20v-20a10,10,0,0,0-20,0v30a10,10,0,0,0,10,10H502a10,10,0,0,0,10-10V243A10,10,0,0,0,502,233Z"/><path class="cls-1" d="M46.56,362.59a10,10,0,0,0,10,10H233.18a10,10,0,0,0,10-10c0-.22,0-.45,0-.66-.28-43-27-79.69-64.28-93.83a49,49,0,1,0-68,0C73.35,282.31,46.56,319.31,46.56,362.59Zm98.3-158.66a29,29,0,1,1-29,29A29,29,0,0,1,144.86,203.93Zm0,77.95c39.89,0,72.91,30.91,77.7,70.71H67.15C72,312.79,105,281.88,144.86,281.88Z"/><path class="cls-1" d="M308.25,345.2h141.9a10,10,0,0,0,0-20H308.25a10,10,0,0,0,0,20Z"/><path class="cls-1" d="M308.25,231.32h141.9a10,10,0,0,0,0-20H308.25a10,10,0,0,0,0,20Z"/><path class="cls-1" d="M308.25,288.26h141.9a10,10,0,0,0,0-20H308.25a10,10,0,0,0,0,20Z"/><path class="cls-1" d="M10,363.48a10,10,0,1,0-10-10A10,10,0,0,0,10,363.48Z"/><path class="cls-1" d="M502,193a10,10,0,1,0,10,10A10,10,0,0,0,502,193Z"/></svg>