<svg id="Layer_1" data-name="Layer 1" xmlns="http://www.w3.org/2000/svg" xmlns:xlink="http://www.w3.org/1999/xlink" viewBox="0 0 168.35 149.06"><defs><style>.cls-1{fill:none;}.cls-2{clip-path:url(#clip-path);}.cls-3{fill:#fff;}</style><clipPath id="clip-path" transform="translate(0 0)"><rect class="cls-1" width="168.35" height="149.06"/></clipPath></defs><title>fuel</title><g class="cls-2"><path class="cls-3" d="M127.2,148.95a4,4,0,0,1-4-4L123,12.24A4.25,4.25,0,0,0,118.77,8h0l-52.69.08a4.24,4.24,0,0,0-4.24,4.25L62,132.86a4,4,0,0,1-4,4h0a4,4,0,0,1-4-4L53.82,12.34A12.25,12.25,0,0,1,66.06.08L118.75,0h0A12.25,12.25,0,0,1,131,12.23l.19,132.71a4,4,0,0,1-4,4Z" transform="translate(0 0)"/><path class="cls-3" d="M77.55,65A12.27,12.27,0,0,1,65.31,52.73l0-29.41A12.25,12.25,0,0,1,77.49,11.05l29.08,0a12.27,12.27,0,0,1,12.27,12.23l0,29.42a12.25,12.25,0,0,1-12.23,12.26L77.57,65ZM106.6,19l-29.09,0a4.25,4.25,0,0,0-4.24,4.25l0,29.41A4.25,4.25,0,0,0,77.55,57v0l29.08,0a4.25,4.25,0,0,0,4.24-4.25l0-29.42A4.25,4.25,0,0,0,106.6,19" transform="translate(0 0)"/><path class="cls-3" d="M48.35,149.06a4,4,0,0,1,0-8l88-.13h0a4,4,0,0,1,0,8l-88,.13Z" transform="translate(0 0)"/><path class="cls-3" d="M38.67,113a4,4,0,0,1-4-4l-.05-34.22a15.07,15.07,0,0,1,15-15.07h8.22a4,4,0,0,1,0,8H49.65a7.06,7.06,0,0,0-7,7.06L42.67,109a4,4,0,0,1-4,4Z" transform="translate(0 0)"/><path class="cls-3" d="M21.38,130.28A21.28,21.28,0,0,1,.09,109L0,45.71a4,4,0,0,1,.67-2.22L24.83,7.22a4,4,0,1,1,6.66,4.44L8,46.91,8.09,109a13.28,13.28,0,0,0,13.28,13.27h0A13.3,13.3,0,0,0,34.66,109a4,4,0,0,1,4-4h0a4,4,0,0,1,4,4,21.31,21.31,0,0,1-21.25,21.32Z" transform="translate(0 0)"/><path class="cls-3" d="M4,62A4,4,0,0,1,1.88,54.6L23.27,41,15.09,25.63a4,4,0,0,1,7.07-3.75l9.92,18.69a4,4,0,0,1-1.39,5.25L6.16,61.36A4,4,0,0,1,4,62" transform="translate(0 0)"/><path class="cls-3" d="M145.63,86.28a4,4,0,0,1-4-4l-.05-37.48A4,4,0,0,1,148.41,42l18.76,18.71a4,4,0,0,1,0,5.66L148.47,85.11a4,4,0,0,1-2.83,1.18m4-31.83,0,18.16,9.07-9.1Z" transform="translate(0 0)"/></g></svg>