<svg id="Layer_1" data-name="Layer 1" xmlns="http://www.w3.org/2000/svg" xmlns:xlink="http://www.w3.org/1999/xlink" viewBox="0 0 157.23 141.45"><defs><style>.cls-1{fill:none;}.cls-2{clip-path:url(#clip-path);}.cls-3{fill:#fff;}</style><clipPath id="clip-path" transform="translate(0 0)"><rect class="cls-1" width="157.23" height="141.45"/></clipPath></defs><title>heating</title><g class="cls-2"><path class="cls-3" d="M86.73,17.48a4,4,0,0,1,0-8l12.51,0h0a4,4,0,0,1,0,8l-12.51,0Z" transform="translate(0 0)"/><path class="cls-3" d="M28.7,141.45a14.93,14.93,0,0,1-10.27-3.86l-7.12-6.68a4,4,0,1,1,5.47-5.84l7.13,6.68c2.47,2.31,7.37,2.19,10.49-.25,6.35-5,15.45-4.85,20.73.25,2.4,2.32,7.52,2.14,11-.38,6.66-4.85,16.07-4.73,21.42.29C90,134,94.88,133.86,98,131.41c6.34-5,15.45-4.85,20.73.25,2.39,2.32,7.53,2.14,11-.38l9.2-6.71a4,4,0,0,1,4.71,6.46l-9.2,6.71c-6.68,4.87-16,4.73-21.25-.33-2.35-2.27-7.14-2.13-10.24.3-6.32,4.95-15.5,4.85-20.9-.21-2.51-2.35-7.75-2.19-11.23.34-6.68,4.87-16,4.73-21.25-.33-2.35-2.27-7.14-2.13-10.24.3a17.3,17.3,0,0,1-10.62,3.65" transform="translate(0 0)"/><path class="cls-3" d="M103.87,116.73a4,4,0,0,1-2.47-7.15l8.57-6.7c6.34-5,15.45-4.85,20.73.25,2.39,2.31,7.52,2.14,11-.38l9.2-6.71a4,4,0,1,1,4.71,6.46l-9.2,6.71c-6.68,4.87-16,4.73-21.25-.33-2.35-2.27-7.14-2.13-10.24.3l-8.57,6.7a4,4,0,0,1-2.46.85" transform="translate(0 0)"/><path class="cls-3" d="M49.22,116.81a4,4,0,0,1-2.78-1.12L39.52,109c-2.35-2.27-7.14-2.13-10.24.3-6.32,4.94-15.5,4.85-20.89-.21l-7.12-6.68a4,4,0,0,1,5.47-5.84l7.12,6.68c2.46,2.31,7.37,2.19,10.49-.26,6.34-5,15.45-4.85,20.73.25L52,109.94a4,4,0,0,1-2.78,6.88" transform="translate(0 0)"/><path class="cls-3" d="M77.61,119.49a24.5,24.5,0,0,1-12-45.86L65.5,12a12,12,0,1,1,24,0l.09,61.63a24.5,24.5,0,0,1-11.92,45.89ZM77.49,8a4,4,0,0,0-4,4l.09,64.11a4,4,0,0,1-2.43,3.69,16.5,16.5,0,0,0,6.45,31.69v4l0-4A16.5,16.5,0,0,0,84,79.78a4,4,0,0,1-2.45-3.68L81.48,12a4,4,0,0,0-4-4" transform="translate(0 0)"/><path class="cls-3" d="M86.76,34.73a4,4,0,0,1,0-8l12.51,0h0a4,4,0,0,1,0,8l-12.51,0Z" transform="translate(0 0)"/><path class="cls-3" d="M86.78,52a4,4,0,0,1,0-8l12.51,0h0a4,4,0,0,1,0,8L86.79,52Z" transform="translate(0 0)"/><path class="cls-3" d="M86.81,69.23a4,4,0,0,1,0-8l12.51,0h0a4,4,0,0,1,0,8l-12.51,0Z" transform="translate(0 0)"/></g></svg>