<svg id="Layer_1" data-name="Layer 1" xmlns="http://www.w3.org/2000/svg" xmlns:xlink="http://www.w3.org/1999/xlink" viewBox="0 0 138.87 93.75"><defs><style>.cls-1{fill:none;}.cls-2{clip-path:url(#clip-path);}.cls-3{fill:#fff;}</style><clipPath id="clip-path" transform="translate(0 0)"><rect class="cls-1" width="138.87" height="93.75"/></clipPath></defs><title>highway</title><g class="cls-2"><path class="cls-3" d="M134.88,87.1a4,4,0,0,1-3.47-2L89.58,12.65a4,4,0,1,1,6.93-4L138.34,81.1a4,4,0,0,1-3.46,6" transform="translate(0 0)"/><path class="cls-3" d="M4,87.1a4,4,0,0,1-3.46-6L42.36,8.65a4,4,0,1,1,6.93,4L7.46,85.1A4,4,0,0,1,4,87.1" transform="translate(0 0)"/><path class="cls-3" d="M69.44,17.82a4,4,0,0,1-4-4V4a4,4,0,1,1,8,0v9.82a4,4,0,0,1-4,4" transform="translate(0 0)"/><path class="cls-3" d="M69.44,48.67a4,4,0,0,1-4-4V31a4,4,0,0,1,8,0V44.67a4,4,0,0,1-4,4" transform="translate(0 0)"/><path class="cls-3" d="M69.44,93.75a4,4,0,0,1-4-4V62.42a4,4,0,1,1,8,0V89.75a4,4,0,0,1-4,4" transform="translate(0 0)"/></g></svg>