<svg id="Layer_1" data-name="Layer 1" xmlns="http://www.w3.org/2000/svg" xmlns:xlink="http://www.w3.org/1999/xlink" viewBox="0 0 146.48 111.08"><defs><style>.cls-1{fill:none;}.cls-2{clip-path:url(#clip-path);}.cls-3{fill:#fff;}</style><clipPath id="clip-path" transform="translate(0 0)"><rect class="cls-1" width="146.48" height="111.08"/></clipPath></defs><title>manual</title><g class="cls-2"><path class="cls-3" d="M16,98.71a4,4,0,0,1-4-4V16.23a4,4,0,0,1,2.27-3.61C15.33,12.11,40.73,0,58.4,0c12,0,18.84,5.92,18.84,16.23V94.71a4,4,0,0,1-8,0c0-2.42,0-7.45-10.84-7.45-15.92,0-40.52,11-40.77,11.1a4,4,0,0,1-1.64.35m4-79.92V88.7c8.68-3.45,25.59-9.44,38.41-9.44a24.87,24.87,0,0,1,10.84,2.09V16.23C69.24,12.16,68,8,58.4,8,45.36,8,26.46,15.91,20,18.79" transform="translate(0 0)"/><path class="cls-3" d="M73.24,111.08H4a4,4,0,0,1-4-4V26.54a4,4,0,0,1,4-4H16a4,4,0,0,1,0,8H8v72.54H69.24V95.71a4,4,0,0,1,8,0v11.37a4,4,0,0,1-4,4" transform="translate(0 0)"/><path class="cls-3" d="M73.24,98.71a4,4,0,0,1-4-4V16.23C69.24,5.91,76.11,0,88.08,0c17.67,0,43.07,12.11,44.14,12.62a4,4,0,0,1,2.27,3.61V94.71a4,4,0,0,1-5.64,3.65c-.25-.11-24.87-11.1-40.77-11.1-10.84,0-10.84,5-10.84,7.45a4,4,0,0,1-4,4M88.08,79.26c12.82,0,29.73,6,38.41,9.44V18.79C120,15.91,101.1,8,88.08,8c-9.56,0-10.84,4.16-10.84,8.23V81.35a24.87,24.87,0,0,1,10.84-2.09" transform="translate(0 0)"/><path class="cls-3" d="M142.48,111.08H73.24a4,4,0,0,1-4-4V95.71a4,4,0,0,1,8,0v7.37h61.24V30.54h-8a4,4,0,0,1,0-8h12a4,4,0,0,1,4,4v80.54a4,4,0,0,1-4,4" transform="translate(0 0)"/><path class="cls-3" d="M100.84,36.12a9.63,9.63,0,1,1,9.63-9.63,9.64,9.64,0,0,1-9.63,9.63m0-11.25a1.63,1.63,0,1,0,1.63,1.63,1.63,1.63,0,0,0-1.63-1.63" transform="translate(0 0)"/><path class="cls-3" d="M100.72,74.63a8.35,8.35,0,0,1-8.34-8.34V46.57a8.34,8.34,0,0,1,16.68,0V66.3a8.35,8.35,0,0,1-8.34,8.34m0-28.4a.34.34,0,0,0-.34.34V66.3a.34.34,0,0,0,.68,0V46.57a.34.34,0,0,0-.34-.34" transform="translate(0 0)"/></g></svg>