<svg id="Layer_1" data-name="Layer 1" xmlns="http://www.w3.org/2000/svg" xmlns:xlink="http://www.w3.org/1999/xlink" viewBox="0 0 166.14 120.71"><defs><style>.cls-1{fill:none;}.cls-2{clip-path:url(#clip-path);}.cls-3{fill:#fff;}</style><clipPath id="clip-path" transform="translate(0 0)"><rect class="cls-1" width="166.14" height="120.71"/></clipPath></defs><title>motor</title><g class="cls-2"><path class="cls-3" d="M80.47,120.71a4,4,0,0,1-3.2-1.59l-13-17.27-41.06.06h0a4,4,0,0,1-4-4l0-18a4,4,0,0,1,4-4h0a4,4,0,0,1,4,4l0,14,39.05-.06h0a4,4,0,0,1,3.19,1.59l13,17.27,41.61-.06,0-20.52a4,4,0,0,1,4-4l13.37,0h0a4,4,0,0,1,4,4V102h7.48a113.86,113.86,0,0,0,5.23-33.76c0-14.64-3.21-23.14-4.84-26.53h-8v9.94a4,4,0,0,1-4,4l-13.37,0h0a4,4,0,0,1-4-4l0-13.79-19.49,0h0a4,4,0,0,1-4-4l0-9.95-55.88.08,0,9.95a4,4,0,0,1-4,4l-13.48,0,0,28.22a4,4,0,0,1-4,4h0a4,4,0,0,1-4-4l0-32.22a4,4,0,0,1,4-4l13.48,0V20.11a4,4,0,0,1,4-4L104.45,16h0a4,4,0,0,1,4,4l0,9.95,19.49,0h0a4,4,0,0,1,4,4l0,13.79h5.38V37.76a4,4,0,0,1,4-4l14.32,0h0a4,4,0,0,1,3.27,1.69c.29.42,7.18,10.42,7.22,32.83a116.83,116.83,0,0,1-6.66,39.22,4,4,0,0,1-3.72,2.54l-14.32,0h0a4,4,0,0,1-4-4V96.1h-5.37l0,20.53a4,4,0,0,1-4,4l-47.61.07Z" transform="translate(0 0)"/><path class="cls-3" d="M5.49,70.32a4,4,0,0,1,0-8l17.66,0h0a4,4,0,0,1,0,8l-17.66,0Z" transform="translate(0 0)"/><path class="cls-3" d="M4.09,102.54a4,4,0,0,1-4-4L0,34.11a4,4,0,0,1,4-4H4a4,4,0,0,1,4,4l.09,64.44a4,4,0,0,1-4,4Z" transform="translate(0 0)"/><path class="cls-3" d="M73.71,24.06a4,4,0,0,1-4-4l0-14.58a4,4,0,0,1,4-4h0a4,4,0,0,1,4,4l0,14.58a4,4,0,0,1-4,4Z" transform="translate(0 0)"/><path class="cls-3" d="M46.41,8.08a4,4,0,0,1,0-8L101,0h0a4,4,0,0,1,0,8l-54.55.08Z" transform="translate(0 0)"/></g></svg>