<svg id="Layer_1" data-name="Layer 1" xmlns="http://www.w3.org/2000/svg" xmlns:xlink="http://www.w3.org/1999/xlink" viewBox="0 0 144.75 144.75"><defs><style>.cls-1{fill:none;}.cls-2{clip-path:url(#clip-path);}.cls-3{fill:#fff;}</style><clipPath id="clip-path" transform="translate(0 0)"><rect class="cls-1" width="144.75" height="144.75"/></clipPath></defs><title>parking</title><g class="cls-2"><path class="cls-3" d="M52.57,106.32a4,4,0,0,1-4-4V42.43a4,4,0,0,1,4-4H76.34c1,0,8.8,0,14.38,5.44,3.62,3.51,5.46,8.34,5.46,14.36,0,6.33-1.84,11.36-5.47,15a18.88,18.88,0,0,1-12.66,5.23H56.57v23.89a4,4,0,0,1-4,4m4-35.89H78.08c1.68,0,10.1-.68,10.1-12.2,0-3.75-1-6.63-3-8.58-3.36-3.29-8.66-3.22-8.71-3.22H56.57Z" transform="translate(0 0)"/><path class="cls-3" d="M72.36,144.75A72.39,72.39,0,1,1,112.26,12a4,4,0,1,1-4.41,6.67,64.4,64.4,0,1,0,17.62,17.3,4,4,0,1,1,6.59-4.54A72.37,72.37,0,0,1,72.36,144.75" transform="translate(0 0)"/></g></svg>