<svg id="Capa_1" data-name="Capa 1" xmlns="http://www.w3.org/2000/svg" viewBox="0 0 480 480"><defs><style>.cls-1{fill:#fff;}</style></defs><path class="cls-1" d="M270.29,130.82H209.71a76.44,76.44,0,0,0-76.35,76.35v96.2a15.27,15.27,0,0,0,15.27,15.27h18.29l9.74,147.1A15.28,15.28,0,0,0,191.9,480h96.71a15.28,15.28,0,0,0,15.24-14.31l9.28-147h18.24a15.27,15.27,0,0,0,15.27-15.27v-96.2A76.44,76.44,0,0,0,270.29,130.82Zm45.8,157.28h-17.3a15.26,15.26,0,0,0-15.24,14.31l-9.28,147H206.19l-9.74-147.09a15.28,15.28,0,0,0-15.24-14.27H163.9V207.17a45.87,45.87,0,0,1,45.81-45.81h60.57a45.86,45.86,0,0,1,45.81,45.81V288.1Z"/><path class="cls-1" d="M239.75,0a61.08,61.08,0,1,0,61.08,61.08A61.15,61.15,0,0,0,239.75,0Zm0,91.62a30.54,30.54,0,1,1,30.54-30.54A30.56,30.56,0,0,1,239.75,91.62Z"/><path class="cls-1" d="M239.75,340.53a15.27,15.27,0,0,0-15.27,15.27V464.22a15.27,15.27,0,0,0,30.54,0V355.8A15.27,15.27,0,0,0,239.75,340.53Z"/></svg>