<svg id="Layer_1" data-name="Layer 1" xmlns="http://www.w3.org/2000/svg" xmlns:xlink="http://www.w3.org/1999/xlink" viewBox="0 0 125.07 122.86"><defs><style>.cls-1{fill:none;}.cls-2{clip-path:url(#clip-path);}.cls-3{fill:#fff;}</style><clipPath id="clip-path" transform="translate(0 0)"><rect class="cls-1" width="125.07" height="122.86"/></clipPath></defs><title>phone</title><g class="cls-2"><path class="cls-3" d="M26,122.86a11.85,11.85,0,0,1-8.44-3.49L5.47,107.24C.41,102.17-10.46,63.48,26.71,26.31A89.19,89.19,0,0,1,78.08.79c13.24-1.81,27.35-.42,30.8,3l12.7,12.7a12,12,0,0,1,0,16.88,4,4,0,0,1-.46.4L100.31,49.06a12,12,0,0,1-16.63-.23l-9.9-9.9a11.88,11.88,0,0,1-3.18-5.77c-5.59,1.34-15.47,4.67-23.3,12.5a43.3,43.3,0,0,0-9.54,14.78,4,4,0,1,1-7.43-3A51.26,51.26,0,0,1,41.63,40C55.25,26.38,73.43,24.45,74.19,24.37a4,4,0,0,1,4.25,5.05,4,4,0,0,0,1,3.85l9.9,9.9a3.94,3.94,0,0,0,5.56,0,4,4,0,0,1,.46-.4L116.1,27.57a4,4,0,0,0-.17-5.38L103.45,9.71C98.19,7.08,61,3.35,32.37,32-.82,65.16,8.61,97.88,11.23,101.68l12,12a4,4,0,0,0,5.41.14L44.49,93.61a4.18,4.18,0,0,1,.33-.37,4,4,0,0,0,0-5.56l-9.9-9.9c-.82-.82-2.88-1.08-4-1a4,4,0,0,1-.65-8c.66-.06,6.57-.44,10.33,3.32l9.9,9.9a12,12,0,0,1,.19,16.68L34.81,119a4,4,0,0,1-.32.37A11.85,11.85,0,0,1,26,122.86" transform="translate(0 0)"/><path class="cls-3" d="M21.46,85.92a4,4,0,0,1-2.83-6.83L27.75,70a4,4,0,0,1,5.66,5.66l-9.12,9.12a4,4,0,0,1-2.83,1.17" transform="translate(0 0)"/><path class="cls-3" d="M74.81,32.57A4,4,0,0,1,72,25.75l9.12-9.12a4,4,0,1,1,5.66,5.66L77.64,31.4a4,4,0,0,1-2.83,1.17" transform="translate(0 0)"/></g></svg>