<svg id="Layer_1" data-name="Layer 1" xmlns="http://www.w3.org/2000/svg" xmlns:xlink="http://www.w3.org/1999/xlink" viewBox="0 0 68.2 60.93"><defs><style>.cls-1{fill:none;}.cls-2{clip-path:url(#clip-path);}.cls-3{fill:#fff;}</style><clipPath id="clip-path" transform="translate(0 0)"><rect class="cls-1" width="68.2" height="60.93"/></clipPath></defs><title>transmission</title><g class="cls-2"><path class="cls-3" d="M4,60.93a4,4,0,0,1-4-4V4A4,4,0,0,1,8,4V56.93a4,4,0,0,1-4,4" transform="translate(0 0)"/><path class="cls-3" d="M34.1,60.93a4,4,0,0,1-4-4V4a4,4,0,0,1,8,0V56.93a4,4,0,0,1-4,4" transform="translate(0 0)"/><path class="cls-3" d="M64.2,60.93a4,4,0,0,1-4-4V4a4,4,0,0,1,8,0V56.93a4,4,0,0,1-4,4" transform="translate(0 0)"/><path class="cls-3" d="M64.2,34.47H4a4,4,0,1,1,0-8H64.2a4,4,0,0,1,0,8" transform="translate(0 0)"/></g></svg>